<svg xmlns="http://www.w3.org/2000/svg" xmlns:xlink="http://www.w3.org/1999/xlink" width="380" height="380" fill="none" xmlns:v="https://vecta.io/nano"><g fill="#0079c2"><path d="M141.441 195.057h16.076v5.271h-7.647v37.042h-8.429v-42.313z"/><use xlink:href="#B"/><use xlink:href="#C"/><path d="M208.447 195.057h19.525v42.313h-8.432v-37.042h-2.661v37.042h-8.432v-42.313z"/><use xlink:href="#D"/><use xlink:href="#E"/><use xlink:href="#F"/><use xlink:href="#G"/><use xlink:href="#H"/></g><g fill="#0071fe"><path d="M141.441 195.057h16.076v5.271h-7.647v37.042h-8.429v-42.313z"/><use xlink:href="#B"/><use xlink:href="#C"/><path d="M208.447 195.057h19.525v42.313h-8.432v-37.042h-2.661v37.042h-8.432v-42.313z"/><use xlink:href="#D"/><use xlink:href="#E"/><use xlink:href="#F"/><use xlink:href="#G"/><use xlink:href="#H"/></g><defs ><path id="B" d="M167.048 221.485l1.445-21.157h.483l1.445 21.157h-3.373zm-9.334 15.885h8.253l.781-11.238h3.974l.784 11.238h8.249l-4.396-42.313H162.11l-4.396 42.313z"/><path id="C" d="M191.825 222.56v7.977c0 1.075.83 1.387 1.314 1.387.794 0 1.347-.658 1.347-1.387v-9.85c0-1.318-.242-2.774-3.386-2.774h-3.421v-4.648h3.559c2.384 0 3.248-.555 3.248-3.156v-8.393c0-.729-.553-1.388-1.347-1.388-.484 0-1.314.278-1.314 1.388v6.902h-8.431v-6c0-2.948.345-7.561 6.254-7.561h6.981c5.909 0 6.289 4.613 6.289 7.561v6.763c0 4.612-3.214 5.861-5.736 5.757v.416c5.667-.139 5.736 4.231 5.736 5.723v8.532c0 2.983-.38 7.561-6.289 7.561h-6.981c-5.909 0-6.254-4.578-6.254-7.561v-7.249h8.431z"/><path id="D" d="M241.933 218.329v-18.001h1.106c.898 0 1.555.763 1.555 2.116v13.769c0 1.353-.657 2.116-1.555 2.116h-1.106zm-8.432 19.041h8.432v-14.394h4.838c5.874 0 6.254-4.578 6.254-7.561v-12.797c0-2.948-.38-7.561-6.254-7.561h-13.27v42.313z"/><path id="E" d="M269.647 230.537c0 .729-.553 1.387-1.347 1.387-.484 0-1.314-.312-1.314-1.387v-28.821c0-1.11.83-1.388 1.314-1.388.794 0 1.347.659 1.347 1.388v28.821zm-11.092-.728c0 2.983.38 7.561 6.254 7.561h7.015c5.875 0 6.255-4.578 6.255-7.561v-27.191c0-2.948-.38-7.561-6.255-7.561h-7.015c-5.874 0-6.254 4.613-6.254 7.561v27.191z"/><path id="F" d="M305.517 195.057h10.989v42.313h-8.432v-26.533h-.311l-4.354 26.533h-6.738l-4.32-26.533h-.311v26.533h-8.432v-42.313h10.955l5.494 29.757 5.46-29.757z"/><path id="G" d="M130.515 137.206c-2.582-11.342-9.051-20.567-9.942-22.059-1.41 2.116-6.57 10.267-9.192 19.284-2.865 10.093-3.287 19.041-2.298 27.816.981 8.809 4.689 17.861 4.689 17.861 1.97 4.717 4.921 9.816 6.842 12.313 2.817-3.677 9.289-14.636 11.307-28.926 1.123-7.977 1.172-14.948-1.406-26.289zm-9.942 52.371c-1.269-2.393-3.238-6.937-3.425-14.012-.048-6.798 2.671-12.659 3.466-13.873.709 1.214 3.052 6.312 3.331 13.283.191 6.798-2.063 12.174-3.372 14.602zm9.192-33.122c-.097 4.335-.612 8.913-1.268 11.653.235-4.717-.329-11.341-1.407-16.544-1.078-5.167-4.129-13.838-6.566-17.827-2.249 3.816-5.021 11.307-6.472 17.793-1.458 6.485-1.5 14.358-1.5 16.717-.387-1.977-1.355-9.087-1.082-16.197.229-5.861 1.597-11.931 2.347-14.706 2.861-9.26 6.099-15.191 6.707-16.127.609.936 4.686 8.254 6.801 15.919 2.105 7.665 2.53 15.018 2.44 19.319z"/><path id="H" d="M105.326 195.057v13.214c.018 0 .031-.035.049-.035 4.623-4.647 12.122-4.647 16.749 0 4.624 4.613 4.624 12.139 0 16.787-.02.034-.041.034-.062.069-.024 0-.048.035-.069.069-4.613 4.578-10.64 6.868-16.667 6.868-6.054 0-12.108-2.29-16.725-6.937-8.142-8.151-9.106-20.81-2.899-30.035.836-1.249 1.8-2.428 2.899-3.538 4.617-4.648 10.671-6.937 16.725-6.937v-31.769c-23.263 0-42.121 18.902-42.121 42.244s18.858 42.278 42.121 42.278c12.13 0 23.057-5.168 30.742-13.388v-28.89h-30.742z"/></defs></svg>