<svg xmlns="http://www.w3.org/2000/svg" width="380" height="380" fill="none" xmlns:v="https://vecta.io/nano"><path fill-rule="evenodd" d="M68.233 143.157c0 .086-.035.157-.079.157s-.079.053-.079.117-.035.118-.079.118-.079.07-.079.157-.032.157-.07.157-.093.088-.12.196-.084.196-.127.196-.077.07-.077.156-.035.157-.079.157-.079.053-.079.118-.035.118-.079.118-.079.07-.079.156-.053.157-.118.157-.118.072-.118.179a.41.41 0 0 1-.158.292.38.38 0 0 0-.158.258.44.44 0 0 1-.099.254c-.249.277-.296.353-.296.486 0 .079-.071.194-.158.256s-.158.179-.158.258a.44.44 0 0 1-.099.255c-.249.276-.296.353-.296.486 0 .079-.071.194-.158.256s-.158.177-.158.255-.053.162-.118.187-.118.112-.118.194.053.148.118.148c.071 0 .118.072.118.179 0 .098.071.229.158.292s.158.177.158.255c0 .134.046.21.296.487a.41.41 0 0 1 .099.232c0 .068.035.123.079.123s.079.053.079.118.035.118.079.118.079.07.079.156.032.157.07.157.093.089.12.196.084.196.127.196.077.053.077.118.035.118.079.118.079.07.079.156.035.157.079.157.079.067.079.149.053.168.118.193.118.117.118.205.035.159.079.159.079.053.079.118.035.117.079.117.079.056.079.123.044.173.099.233c.249.276.296.353.296.486 0 .079.071.194.158.256a.41.41 0 0 1 .158.292c0 .106.048.179.118.179s.118.069.118.156.035.157.079.157.079.053.079.118.035.118.079.118.079.07.079.156.032.157.07.157.093.088.12.196.084.196.127.196.077.071.077.157.035.157.079.157.079.053.079.117.035.118.079.118.079.067.079.149.053.168.118.193.118.117.118.205.035.159.079.159.079.07.079.157.035.156.079.156.079.053.079.118.035.118.079.118.079.07.079.157.053.156.118.156c.074 0 .118.074.118.196 0 .108.035.196.079.196s.079.071.079.157.035.157.079.157.079.038.079.084.044.133.099.194c.249.276.296.352.296.486 0 .078.071.193.158.255s.158.177.158.256.053.162.118.187.118.112.118.193.035.149.079.149.079.072.079.16.089.249.197.357.197.247.197.31.035.114.079.114.079.07.079.156.035.157.079.157.079.071.079.157.035.157.079.157.079.038.079.084.044.133.099.193c.252.279.296.354.296.504 0 .088.035.16.079.16s.079.038.079.084.044.133.099.193c.245.272.296.352.296.465 0 .066.035.12.079.12s.079.073.079.161.089.255.197.371.197.256.197.311.036.098.079.098.079.071.079.157.035.157.079.157.079.072.079.16.089.256.197.372.197.256.197.31.035.099.079.099.079.071.079.157.035.157.079.157.079.088.079.196.038.196.084.196c.139 0 .31.213.31.386 0 .09.035.163.079.163s.079.07.079.157.035.156.079.156.079.037.079.082c0 .077.062.166.296.425a.47.47 0 0 1 .099.272c0 .089.035.162.079.162s.079.071.079.157.053.157.118.157.118.053.118.118.035.117.079.117.079.071.079.157.035.157.079.157.079.073.079.162.044.212.099.272c.234.26.296.348.296.425 0 .045.035.082.079.082s.079.071.079.157.035.157.079.157.079.088.079.196c0 .118.045.196.113.196.062 0 .158.123.213.274s.128.275.163.275.063.07.063.156.035.157.079.157.079.066.079.146.089.212.197.293.197.227.197.325.035.177.079.177.079.071.079.157.027.157.061.157.128.123.21.274.178.275.215.275.067.07.067.157.035.156.079.156.079.089.079.196c0 .122.045.197.118.197.066 0 .118.069.118.156s.035.157.079.157.079.053.079.118.035.117.079.117.079.071.079.157.032.157.07.157.093.088.12.196.084.196.127.196.077.053.077.118.035.117.079.117.079.071.079.157.036.157.079.157.079.067.079.148.053.169.118.194.118.109.118.187.071.193.158.255a.41.41 0 0 1 .158.292c0 .098.035.179.079.179s.079.07.079.156.053.157.118.157.118.073.118.179a.41.41 0 0 0 .158.292c.087.062.158.178.158.258a.44.44 0 0 0 .099.254c.234.26.296.349.296.426a.08.08 0 0 0 .079.081c.043 0 .079.071.079.157s.035.157.079.157.079.088.079.196c0 .122.045.196.118.196.066 0 .118.07.118.157s.036.157.079.157.079.053.079.117.035.118.079.118.079.07.079.157.035.156.077.156.1.089.127.197.081.196.12.196.07.07.07.156.035.157.079.157.079.053.079.118.035.118.079.118.079.07.079.156.053.157.118.157c.074 0 .118.074.118.196 0 .108.035.196.079.196s.079.071.079.157.035.157.079.157.079.038.079.084.044.133.099.193c.245.272.296.351.296.465 0 .066.035.121.079.121s.079.052.079.117.035.118.079.118.079.073.079.162a.47.47 0 0 0 .099.272c.245.272.296.351.296.464 0 .067.035.121.079.121s.079.053.079.118.035.117.079.117.079.067.079.149.053.168.118.193.118.117.118.205.035.159.079.159.079.071.079.157.035.157.079.157.079.037.079.082c0 .076.062.165.296.424.054.061.099.183.099.272s.035.163.079.163.079.053.079.117.035.118.079.118.079.071.079.157.053.157.118.157.118.069.118.156.035.157.079.157.079.076.079.168.066.224.146.294a.79.79 0 0 1 .203.303c.031.097.089.176.13.176s.074.071.074.157.035.157.079.157.079.072.079.16.089.249.197.357.197.247.197.31.035.114.079.114.079.07.079.157.036.157.079.157.079.073.079.162c0 .174.171.386.31.386.046 0 .084.089.084.196s.035.197.079.197.079.07.079.156.035.157.079.157.079.038.079.084.044.133.099.194c.252.279.296.354.296.503 0 .088.035.16.079.16s.079.071.079.157.03.157.066.157.133.123.215.274.176.275.209.275.061.088.061.196.035.196.079.196.079.07.079.157.053.156.118.156.118.053.118.118.035.118.079.118.079.07.079.157.035.156.079.156.079.073.079.163c0 .411-1.104.386 17.305.386l17.08.047c0 .092-.272.502-.333.502-.034 0-.062.071-.062.157s-.035.157-.078.157-.079.073-.079.162c0 .174-.171.387-.31.387-.047 0-.085.088-.085.196s-.035.196-.078.196-.079.07-.079.157-.036.156-.079.156-.079.038-.079.084a.37.37 0 0 1-.099.194c-.251.279-.295.354-.295.503 0 .088-.036.161-.079.161s-.079.07-.079.156-.036.157-.079.157-.079.053-.079.118-.053.117-.118.117-.118.07-.118.157-.036.157-.079.157-.079.072-.079.16-.089.249-.197.357-.198.247-.198.31-.035.114-.078.114-.079.071-.079.157-.036.157-.079.157-.079.07-.079.156-.035.157-.079.157-.079.053-.079.118-.034.118-.077.118-.1.088-.127.196-.081.196-.12.196-.07.07-.07.157-.036.156-.079.156-.079.053-.079.118-.035.117-.079.117-.078.071-.078.157-.053.157-.119.157-.118.07-.118.157-.036.157-.079.157-.079.075-.079.167-.066.224-.146.294-.172.206-.203.303-.089.177-.129.177-.074.07-.074.157-.035.156-.079.156-.079.053-.079.118-.033.118-.073.118-.096.07-.124.157c-.049.155-.119.156-8.641.156l-8.591.115c0 .062-.088.202-.197.31s-.197.268-.197.356-.035.16-.079.16-.079.071-.079.157-.035.157-.079.157-.078.051-.078.114-.089.202-.198.31-.197.268-.197.357-.035.16-.079.16-.078.071-.078.157-.053.157-.119.157-.118.072-.118.178a.41.41 0 0 1-.158.292c-.086.062-.157.178-.157.258s-.045.195-.099.255c-.249.276-.296.353-.296.486a.38.38 0 0 1-.158.256c-.086.062-.157.178-.157.258a.44.44 0 0 1-.099.254c-.245.272-.296.352-.296.465 0 .066-.035.121-.078.121s-.079.141-.079.313.035.314.079.314.078.07.078.157.028.157.061.157.128.123.21.274.179.275.215.275.066.088.066.196.036.196.079.196.079.07.079.156.053.157.118.157.119.07.119.157.035.157.079.157.079.053.079.118.035.117.078.117.079.071.079.157.036.157.079.157.079.088.079.196c0 .122.045.196.118.196.066 0 .119.07.119.157s.035.156.078.156.079.054.079.118.036.118.079.118.079.07.079.157.032.156.07.156.093.089.12.196.084.196.127.196.077.071.077.157.036.157.079.157.079.053.079.118.036.117.079.117.079.067.079.149.053.169.118.193.118.117.118.205c0 .159 0 .159 11.948.159l11.948-.118c0-.064.036-.117.079-.117s.079-.071.079-.157.036-.157.079-.157.079-.067.079-.148.053-.169.118-.194.118-.109.118-.187.071-.193.158-.255.158-.178.158-.258a.44.44 0 0 1 .098-.254c.25-.277.296-.353.296-.487 0-.078.071-.193.158-.256s.158-.178.158-.258a.44.44 0 0 1 .098-.254c.249-.276.296-.353.296-.486 0-.079.071-.194.158-.256s.157-.194.157-.292c0-.107.048-.179.119-.179.065 0 .118-.069.118-.156s.035-.157.079-.157.079-.072.079-.161.088-.248.197-.356.197-.248.197-.31.036-.114.079-.114.079-.071.079-.157.035-.157.079-.157.078-.053.078-.118.036-.117.079-.117.079-.071.079-.157.053-.157.118-.157c.074 0 .119-.074.119-.196 0-.108.035-.196.079-.196s.079-.07.079-.157.035-.157.078-.157.079-.037.079-.084.045-.133.099-.193c.252-.279.296-.354.296-.503 0-.088.035-.161.078-.161s.079-.07.079-.156.036-.157.079-.157.079-.038.079-.084.044-.133.099-.194c.251-.279.295-.354.295-.503 0-.088.036-.16.079-.16s.079-.058.079-.128.089-.21.197-.31.197-.237.197-.303.036-.122.079-.122.079-.072.079-.16.089-.249.197-.357.197-.247.197-.31.036-.114.079-.114.079-.07.079-.157.036-.156.079-.156.079-.071.079-.157.035-.157.079-.157.079-.053.079-.118.053-.117.118-.117c.073 0 .118-.074.118-.196 0-.108.036-.196.079-.196s.079-.071.079-.157.027-.157.061-.157.128-.124.209-.275.179-.274.216-.274.066-.07.066-.157.036-.157.079-.157.079-.073.079-.162a.47.47 0 0 1 .098-.272c.234-.259.296-.348.296-.425 0-.045.035-.082.079-.082s.079-.07.079-.156.035-.157.079-.157.079-.073.079-.163a.47.47 0 0 1 .098-.271c.234-.26.296-.349.296-.426 0-.045.035-.081.079-.081s.079-.071.079-.157.035-.157.078-.157.079-.051.079-.114.089-.202.197-.31.198-.268.198-.356.035-.161.078-.161.079-.07.079-.157.036-.156.079-.156.079-.052.079-.115.089-.202.197-.31.197-.268.197-.356.036-.161.079-.161.079-.07.079-.156.053-.157.118-.157c.071 0 .119-.072.119-.179 0-.098.071-.229.157-.292s.158-.178.158-.258a.44.44 0 0 1 .099-.254c.249-.277.295-.353.295-.486 0-.079.071-.194.158-.256s.158-.179.158-.258a.44.44 0 0 1 .099-.255c.249-.276.295-.353.295-.486 0-.079.071-.194.158-.256s.158-.177.158-.255.053-.162.118-.187.118-.112.118-.194.036-.148.079-.148.079-.053.079-.118.035-.117.079-.117.079-.071.079-.157.035-.157.077-.157.1-.088.127-.196.081-.196.12-.196.07-.071.07-.157.036-.157.079-.157.079-.053.079-.117.035-.118.079-.118.079-.071.079-.157.052-.157.118-.157c.073 0 .118-.074.118-.196 0-.107.036-.196.079-.196s.079-.07.079-.157.035-.156.079-.156.079-.038.079-.084.044-.134.098-.194c.245-.272.296-.351.296-.464 0-.066.035-.121.079-.121s.079-.072.079-.16.088-.256.197-.372.197-.256.197-.31.036-.099.079-.099.079-.07.079-.157.035-.157.079-.157.078-.073.078-.162c0-.174.171-.386.31-.386.047 0 .085-.089.085-.196s.035-.197.079-.197.078-.07.078-.156.036-.157.079-.157.079-.038.079-.084.045-.133.099-.194c.252-.279.296-.354.296-.503 0-.088.035-.16.078-.16s.079-.071.079-.157.036-.157.079-.157.079-.053.079-.117.053-.118.118-.118.119-.07.119-.157.035-.157.078-.157.079-.088.079-.196.028-.196.061-.196.128-.123.21-.274.178-.275.215-.275.066-.07.066-.157.036-.156.079-.156.079-.073.079-.163.044-.211.099-.272c.234-.259.295-.348.295-.425 0-.045.036-.081.079-.081s.079-.071.079-.157.036-.157.079-.157.079-.073.079-.162a.47.47 0 0 1 .098-.272c.234-.26.296-.348.296-.425 0-.045.036-.082.079-.082s.079-.071.079-.157.035-.157.079-.157.079-.051.079-.114.088-.202.197-.31.197-.268.197-.356.036-.161.079-.161.079-.055.079-.123a.41.41 0 0 1 .098-.232c.234-.26.296-.349.296-.426 0-.044.035-.081.079-.081s.079-.088.079-.196.035-.196.079-.196.078-.071.078-.157.053-.157.119-.157.118-.07.118-.157.036-.157.079-.157.079-.052.079-.117.035-.118.079-.118.079-.073.079-.162a.47.47 0 0 1 .098-.272c.246-.272.296-.351.296-.464 0-.067.035-.121.079-.121s.079-.053.079-.118.035-.118.078-.118.079-.066.079-.147a.36.36 0 0 1 .119-.244c.065-.054.118-.147.118-.206s.035-.108.079-.108.079-.071.079-.157.035-.157.079-.157.078-.053.078-.117.036-.118.079-.118.079-.071.079-.157.053-.157.118-.157c.074 0 .119-.074.119-.196 0-.108.035-.196.079-.196s.078-.053.078-.118.036-.117.079-.117.079-.055.079-.123.044-.173.099-.233c.249-.276.295-.353.295-.486 0-.079.071-.194.158-.256a.41.41 0 0 0 .158-.292c0-.106.048-.178.118-.178s.119-.07.119-.157.035-.157.078-.157.079-.075.079-.167a.45.45 0 0 1 .147-.294c.08-.07.171-.207.202-.304s.089-.176.13-.176.073-.071.073-.157.036-.157.079-.157.079-.072.079-.16.089-.249.197-.357.197-.247.197-.31.036-.114.079-.114.079-.07.079-.156.036-.157.079-.157.079-.053.079-.118.035-.118.079-.118.079-.07.079-.156.052-.157.118-.157c.073 0 .118-.074.118-.196 0-.108.036-.196.079-.196s.079-.071.079-.157.035-.157.079-.157.079-.038.079-.084.053-.137.118-.202.118-.148.118-.184-.053-.121-.118-.185-.118-.183-.118-.263-.071-.196-.158-.258-.158-.179-.158-.258-.044-.195-.098-.255c-.25-.276-.296-.353-.296-.486 0-.079-.071-.194-.158-.256a.41.41 0 0 1-.158-.292c0-.106-.047-.178-.118-.178s-.118-.07-.118-.157-.036-.157-.079-.157-.079-.075-.079-.167-.066-.225-.146-.294a.8.8 0 0 1-.203-.304c-.031-.097-.089-.176-.129-.176s-.074-.071-.074-.157-.035-.157-.079-.157-.079-.072-.079-.16-.088-.249-.197-.356-.197-.248-.197-.31-.036-.115-.079-.115-.079-.07-.079-.156-.035-.157-.079-.157-.079-.089-.079-.196c0-.196.001-.196-3.43-.196s-3.431 0-3.431.196c0 .107-.035.196-.079.196s-.078.07-.078.157-.036.156-.079.156-.079.038-.079.084-.045.134-.099.194c-.249.276-.296.353-.296.486 0 .079-.071.194-.157.256a.41.41 0 0 0-.158.292c0 .106-.048.178-.118.178s-.119.07-.119.157-.035.157-.078.157-.079.071-.079.157-.036.157-.079.157-.079.053-.079.117-.032.118-.07.118-.093.088-.12.196-.085.196-.127.196-.077.071-.077.157-.036.157-.079.157-.079.07-.079.156-.036.157-.079.157-.079.053-.079.118-.035.118-.077.118-.1.088-.127.195-.081.197-.12.197-.07.07-.07.156-.036.157-.079.157-.079.053-.079.118-.035.118-.079.118-.079.07-.079.156-.052.157-.118.157c-.074 0-.118.074-.118.196 0 .108-.036.196-.079.196s-.079.071-.079.157-.03.157-.066.157-.134.123-.215.274-.177.275-.21.275-.061.07-.061.157-.035.156-.079.156-.079.074-.079.163c0 .173-.17.386-.309.386-.047 0-.085.089-.085.196s-.036.196-.079.196-.079.071-.079.157-.035.157-.079.157-.078.051-.078.114-.089.202-.198.31-.197.269-.197.357-.035.16-.079.16-.079.071-.079.157-.035.157-.078.157-.079.038-.079.084-.045.133-.099.193c-.252.279-.296.354-.296.504 0 .088-.029.16-.064.16s-.123.123-.196.274-.167.275-.212.275-.08.07-.08.156-.035.157-.078.157-.079.073-.079.163a.47.47 0 0 1-.099.271c-.234.26-.296.349-.296.426 0 .045-.035.081-.079.081s-.078.071-.078.157-.036.157-.079.157-.079.073-.079.162c0 .174-.171.387-.31.387-.046 0-.084.088-.084.196s-.036.196-.079.196-.079.07-.079.157-.036.156-.079.156-.079.066-.079.146-.089.212-.197.293-.197.227-.197.325-.036.178-.079.178-.079.055-.079.123-.044.172-.099.232c-.234.26-.295.348-.295.425 0 .045-.036.082-.079.082s-.079.088-.079.196-.036.196-.079.196-.079.071-.079.157-.052.157-.118.157-.118.069-.118.157-.036.157-.079.157-.079.052-.079.117-.035.118-.079.118-.079.07-.079.156-.031.157-.07.157-.093.089-.12.196-.084.196-.127.196-.077.053-.077.118-.036.118-.079.118-.079.07-.079.157-.035.156-.079.156-.079.071-.079.157-.035.157-.078.157-.079.051-.079.114-.089.202-.197.31-.198.268-.198.357-.035.16-.078.16-.079.071-.079.157-.053.157-.119.157-.118.07-.118.162c0 .411 1.11.386-17.384.386-17.106 0-17.158 0-17.158-.156 0-.087-.035-.157-.079-.157s-.079-.072-.079-.161-.089-.248-.197-.356-.197-.247-.197-.31-.035-.114-.079-.114-.079-.071-.079-.157-.035-.157-.079-.157-.079-.053-.079-.117-.035-.118-.079-.118-.079-.071-.079-.157-.053-.157-.118-.157c-.074 0-.118-.074-.118-.196 0-.107-.035-.196-.079-.196s-.079-.07-.079-.157-.035-.156-.079-.156-.079-.038-.079-.084-.044-.134-.099-.194c-.252-.279-.296-.354-.296-.503 0-.088-.035-.16-.079-.16s-.079-.071-.079-.157-.035-.157-.079-.157-.079-.038-.079-.084-.044-.133-.099-.193c-.252-.28-.296-.354-.296-.504 0-.088-.035-.16-.079-.16s-.079-.058-.079-.128-.089-.21-.197-.31-.197-.237-.197-.303-.035-.122-.079-.122-.079-.07-.079-.156-.036-.157-.079-.157-.079-.038-.079-.084-.044-.133-.099-.194c-.252-.279-.296-.354-.296-.503 0-.088-.035-.16-.079-.16s-.079-.071-.079-.157-.035-.157-.079-.157-.079-.038-.079-.084-.044-.133-.099-.193c-.252-.279-.296-.354-.296-.504 0-.088-.035-.16-.079-.16s-.079-.054-.079-.121-.089-.203-.197-.303-.197-.24-.197-.31-.035-.128-.079-.128-.079-.073-.079-.163-.044-.211-.099-.272c-.234-.259-.296-.348-.296-.425a.08.08 0 0 0-.079-.081c-.043 0-.079-.071-.079-.157s-.035-.157-.079-.157-.079-.088-.079-.196c0-.118-.045-.196-.113-.196-.062 0-.158-.124-.213-.275s-.128-.274-.163-.274-.063-.071-.063-.157-.035-.157-.079-.157-.079-.088-.079-.196-.038-.196-.084-.196c-.139 0-.31-.213-.31-.386 0-.09-.035-.163-.079-.163s-.079-.07-.079-.156-.033-.157-.074-.157-.099-.08-.13-.177-.122-.233-.202-.303-.146-.202-.146-.294-.035-.167-.079-.167-.079-.071-.079-.157-.053-.157-.118-.157-.118-.072-.118-.179a.41.41 0 0 0-.158-.291c-.087-.063-.158-.179-.158-.259s-.044-.194-.099-.254c-.234-.26-.296-.348-.296-.425 0-.045-.035-.082-.079-.082s-.079-.07-.079-.157-.035-.156-.079-.156-.079-.089-.079-.196c0-.122-.045-.197-.118-.197-.066 0-.118-.069-.118-.156s-.035-.157-.079-.157-.079-.053-.079-.118-.036-.117-.079-.117-.079-.071-.079-.157-.035-.157-.079-.157-.079-.067-.079-.149-.053-.168-.118-.193-.118-.117-.118-.205-.035-.159-.079-.159-.079-.053-.079-.118-.035-.117-.079-.117-.079-.055-.079-.123-.044-.173-.099-.233c-.252-.279-.296-.354-.296-.503 0-.088-.035-.161-.079-.161s-.079-.052-.079-.117-.035-.118-.079-.118-.079-.07-.079-.157-.053-.156-.118-.156-.118-.07-.118-.157-.035-.157-.079-.157-.079-.053-.079-.118-.035-.117-.079-.117-.079-.071-.079-.157-.032-.157-.07-.157-.093-.088-.12-.196-.084-.196-.127-.196-.077-.071-.077-.157-.035-.157-.079-.157-.079-.053-.079-.117-.035-.118-.079-.118-.079-.071-.079-.157-.035-.157-.077-.157-.1-.088-.127-.196-.081-.196-.12-.196-.07-.07-.07-.157-.035-.156-.079-.156-.079-.038-.079-.084-.044-.134-.099-.194c-.252-.279-.296-.354-.296-.503 0-.088-.035-.16-.079-.16s-.079-.071-.079-.157-.035-.157-.079-.157-.079-.038-.079-.084-.044-.133-.099-.193c-.249-.277-.296-.353-.296-.486 0-.079-.071-.194-.158-.256s-.158-.194-.158-.292c0-.107-.048-.179-.118-.179s-.118-.07-.118-.157-.035-.157-.079-.157-.079-.072-.079-.16-.089-.249-.197-.356-.197-.248-.197-.31-.035-.115-.079-.115-.079-.07-.079-.156-.035-.157-.079-.157-.079-.072-.079-.161-.089-.248-.197-.356-.197-.247-.197-.31-.035-.114-.079-.114-.079-.071-.079-.157-.035-.157-.079-.157-.079-.054-.079-.121-.089-.203-.197-.303-.197-.257-.197-.349-.035-.168-.079-.168-.079-.07-.079-.157c0-.156.053-.156 108.477-.156l108.478.159c0 .087-.053.179-.118.204s-.118.112-.118.194-.036.148-.079.148-.079.071-.079.157-.035.157-.079.157-.079.053-.079.118-.034.117-.077.117-.1.088-.127.196-.081.196-.12.196-.07.071-.07.157-.036.157-.079.157-.079.07-.079.157-.035.157-.079.157-.078.053-.078.117-.054.118-.119.118-.118.07-.118.157-.036.156-.079.156-.079.089-.079.196-.027.197-.061.197-.128.123-.209.274-.179.274-.215.274-.067.071-.067.157-.035.157-.079.157-.079.073-.079.163a.47.47 0 0 1-.098.271c-.234.26-.296.349-.296.425 0 .045-.035.082-.079.082s-.079.071-.079.157-.035.157-.079.157-.078.073-.078.162a.47.47 0 0 1-.099.272c-.234.259-.296.348-.296.425 0 .045-.035.082-.079.082s-.078.07-.078.157-.036.156-.079.156-.079.089-.079.197-.038.195-.085.195c-.139 0-.309.213-.309.387 0 .089-.036.162-.079.162s-.079.071-.079.157-.036.157-.079.157-.079.051-.079.114-.089.202-.197.31-.197.268-.197.357-.036.16-.079.16-.079.071-.079.157-.053.157-.118.157c-.071 0-.119.072-.119.178a.41.41 0 0 1-.157.292c-.087.062-.158.179-.158.258a.44.44 0 0 1-.099.255c-.249.276-.295.353-.295.486 0 .079-.071.194-.158.256s-.158.178-.158.258a.44.44 0 0 1-.098.254c-.246.272-.296.352-.296.465 0 .066-.036.121-.079.121s-.079.053-.079.117-.035.118-.079.118-.079.072-.079.159-.053.18-.118.205-.118.112-.118.193-.036.149-.079.149-.079.07-.079.156-.035.157-.079.157-.079.053-.079.118-.034.118-.077.118-.1.088-.127.195-.081.197-.12.197-.07.07-.07.156-.035.157-.079.157-.079.068-.079.151-.031.162-.068.176c-.141.054-.174.362-.053.483a.46.46 0 0 1 .121.283c0 .089.036.162.079.162s.079.055.079.121.089.203.197.303.197.24.197.31.036.128.079.128.079.073.079.161.089.248.197.356.197.248.197.31.036.114.079.114.079.071.079.157.036.157.079.157.079.072.079.16.089.249.197.357.197.247.197.31.036.114.079.114.079.071.079.157.035.157.079.157.079.088.079.196.038.196.084.196c.139 0 .31.213.31.386 0 .09.035.163.079.163s.079.052.079.116.061.188.136.275c.132.153.227.158 3.384.158l3.374-.048c.068-.026.125-.114.125-.196s.035-.148.078-.148.079-.071.079-.157.032-.157.071-.157.092-.088.119-.196.085-.196.127-.196.078-.053.078-.118.035-.117.079-.117.078-.071.078-.157.036-.157.079-.157.079-.055.079-.121.089-.204.197-.304.197-.239.197-.309.036-.129.079-.129.079-.073.079-.162.045-.212.099-.272c.234-.259.296-.348.296-.425 0-.045.035-.082.078-.082s.079-.07.079-.156.036-.157.079-.157.079-.088.079-.196c0-.122.045-.196.118-.196.066 0 .119-.07.119-.157s.035-.157.078-.157.079-.053.079-.118.036-.117.079-.117.079-.071.079-.157.032-.157.07-.157.093-.088.12-.196.084-.196.127-.196.077-.071.077-.157.036-.157.079-.157.079-.053.079-.117.036-.118.079-.118.079-.071.079-.157.033-.157.073-.157.099-.079.13-.176.122-.233.202-.303.147-.202.147-.294.035-.168.079-.168.079-.07.079-.156.052-.157.118-.157.118-.072.118-.179a.41.41 0 0 1 .158-.292c.087-.062.158-.178.158-.258a.44.44 0 0 1 .098-.254c.246-.272.296-.352.296-.465 0-.066.035-.121.079-.121s.079-.052.079-.117.035-.118.079-.118.078-.071.078-.159.054-.18.119-.204.118-.112.118-.194.035-.149.079-.149.079-.052.079-.117.035-.118.079-.118.078-.07.078-.157.036-.156.079-.156.079-.072.079-.16.053-.179.118-.204.119-.112.119-.194.035-.148.079-.148.079-.053.079-.118.035-.117.078-.117.079-.056.079-.124.045-.172.099-.232c.252-.279.296-.354.296-.504 0-.088.035-.16.078-.16s.079-.053.079-.117.036-.118.079-.118.079-.071.079-.157.053-.157.118-.157.119-.069.119-.157.035-.156.078-.156.079-.076.079-.168.066-.224.147-.294.171-.206.202-.303.089-.176.13-.176.073-.071.073-.157.036-.157.079-.157.079-.053.079-.118.036-.117.079-.117.079-.071.079-.157.052-.157.118-.157c.074 0 .118-.074.118-.196 0-.108.036-.196.079-.196s.079-.071.079-.157.036-.157.079-.157.079-.037.079-.084.044-.133.098-.193c.252-.279.296-.354.296-.503 0-.088.036-.161.079-.161s.079-.07.079-.156.035-.157.079-.157.079-.037.079-.082c0-.077.061-.166.295-.425a.44.44 0 0 0 .099-.255c0-.079.071-.195.158-.258s.157-.177.157-.255.054-.162.119-.187.118-.112.118-.193.036-.149.079-.149.079-.072.079-.16.088-.249.197-.357.197-.247.197-.31.036-.114.079-.114.079-.07.079-.157.035-.156.079-.156.079-.071.079-.157.035-.157.078-.157.079-.053.079-.118.054-.117.119-.117c.073 0 .118-.074.118-.196 0-.108.035-.196.079-.196s.079-.071.079-.157.035-.157.078-.157.079-.044.079-.099.089-.194.197-.31.198-.284.198-.372.035-.16.079-.16.078-.058.078-.128.089-.21.198-.31.197-.236.197-.303.035-.122.079-.122.078-.07.078-.156.029-.157.063-.157.109-.126.165-.28.152-.298.213-.322.111-.109.111-.191.036-.148.079-.148.079-.071.079-.157.036-.157.079-.157.079-.051.079-.114.089-.202.197-.31.197-.268.197-.357.036-.16.079-.16.079-.07.079-.157-.035-.157-.079-.157-.079-.072-.079-.16-.088-.249-.197-.356-.197-.248-.197-.31-.036-.115-.079-.115-.079-.07-.079-.156-.035-.157-.079-.157-.079-.088-.079-.196c0-.118-.045-.196-.113-.196-.062 0-.158-.124-.213-.275s-.128-.274-.163-.274-.063-.071-.063-.157-.035-.157-.078-.157-.079-.088-.079-.196-.038-.196-.085-.196c-.139 0-.31-.213-.31-.386 0-.09-.035-.163-.078-.163s-.079-.07-.079-.157-.033-.156-.074-.156-.099-.08-.129-.177-.122-.233-.203-.303-.146-.202-.146-.294-.036-.167-.079-.167-.079-.071-.079-.157-.053-.157-.118-.157-.119-.07-.119-.162-.05-.213-.112-.275c-.098-.097-16.449-.112-121.846-.112l-121.733.157zm99.941 20.505c-.054.061-.098.183-.098.272s-.03.16-.067.16-.133.123-.215.274-.176.274-.209.274-.061.071-.061.157-.036.157-.079.157-.079.072-.079.161-.089.248-.197.356-.197.247-.197.31-.036.114-.079.114-.079.071-.079.157-.036.157-.079.157-.079.053-.079.117-.035.118-.079.118-.079.071-.079.157-.052.157-.118.157c-.073 0-.118.074-.118.196 0 .108-.036.196-.079.196s-.079.07-.079.157-.035.156-.079.156-.079.038-.079.084-.044.134-.098.194c-.252.279-.296.354-.296.503 0 .088-.035.16-.079.16s-.079.071-.079.157-.035.157-.079.157-.078.053-.078.118-.054.117-.119.117-.118.07-.118.157-.036.157-.079.157-.079.088-.079.196-.027.196-.061.196-.127.123-.209.274-.179.275-.215.275-.067.071-.067.157-.035.157-.079.157-.079.073-.079.162a.47.47 0 0 1-.098.272c-.234.259-.296.348-.296.425 0 .045-.035.082-.079.082s-.079.07-.079.156-.035.157-.078.157-.079.073-.079.163c0 .173-.171.386-.31.386-.047 0-.085.088-.085.196s-.035.196-.078.196-.079.071-.079.157-.036.157-.079.157-.079.051-.079.114-.089.202-.197.31-.197.268-.197.356-.036.161-.079.161-.079.054-.079.121c0 .113-.051.192-.296.464-.054.06-.098.147-.098.193s-.036.084-.079.084-.079.089-.079.197-.036.196-.079.196-.079.07-.079.156-.052.157-.118.157-.118.07-.118.157-.036.157-.079.157-.079.053-.079.117-.036.118-.079.118-.079.073-.079.163-.044.211-.099.271c-.245.272-.295.351-.295.464 0 .067-.036.122-.079.122s-.079.052-.079.117-.036.118-.079.118-.079.07-.079.156-.035.157-.079.157-.078.052-.078.114-.089.203-.198.31-.197.269-.197.357-.035.16-.079.16-.079.071-.079.157-.052.157-.118.157-.118.072-.118.179a.41.41 0 0 1-.158.291c-.087.063-.158.179-.158.259a.44.44 0 0 1-.098.254c-.249.276-.296.353-.296.486 0 .079-.071.194-.158.256s-.157.194-.157.292c0 .107-.048.179-.119.179-.065 0-.118.069-.118.156s-.035.157-.079.157-.079.076-.079.167a.46.46 0 0 1-.146.295c-.081.069-.172.206-.203.303s-.089.176-.129.176-.074.071-.074.157-.035.157-.079.157-.078.072-.078.16-.089.249-.198.357-.197.247-.197.31-.035.114-.079.114-.078.07-.078.157-.036.156-.079.156-.079.054-.079.118-.036.118-.079.118-.079.07-.079.157-.053.156-.118.156c-.074 0-.119.075-.119.197 0 .107-.035.196-.078.196s-.079.07-.079.156-.036.157-.079.157-.079.038-.079.084-.044.133-.099.194c-.251.279-.295.354-.295.503 0 .088-.036.16-.079.16s-.079.058-.079.128-.089.21-.197.31-.197.237-.197.303-.036.122-.079.122-.079.088-.079.196-.029.196-.064.196-.124.123-.196.274-.168.275-.212.275-.08.07-.08.157-.036.156-.079.156-.079.073-.079.163-.044.211-.098.272c-.234.259-.296.348-.296.425 0 .045-.036.081-.079.081s-.079.071-.079.157-.035.157-.079.157-.079.071-.079.157-.035.157-.079.157-.078.053-.078.117-.054.118-.119.118-.118.07-.118.157-.036.157-.079.157-.079.088-.079.196-.027.196-.061.196-.127.123-.209.274-.179.275-.215.275-.067.07-.067.156-.035.157-.079.157-.078.073-.078.163a.47.47 0 0 1-.099.271c-.234.26-.296.349-.296.426 0 .044-.035.081-.079.081s-.079.071-.079.157-.035.157-.078.157-.079.088-.079.196c0 .122-.045.196-.119.196-.065 0-.118.07-.118.157s-.035.157-.079.157-.079.053-.079.117-.035.118-.078.118-.079.07-.079.157-.032.156-.071.156-.092.089-.12.196-.084.197-.126.197-.078.07-.078.156-.035.157-.078.157-.079.053-.079.118-.036.118-.079.118-.079.07-.079.156-.033.157-.074.157-.098.079-.129.176a.8.8 0 0 1-.203.304c-.08.07-.146.202-.146.294s-.036.167-.079.167-.079.071-.079.157-.052.157-.118.157-.118.072-.118.178a.41.41 0 0 1-.158.292c-.087.062-.158.179-.158.258a.44.44 0 0 1-.099.255c-.249.276-.295.353-.295.486 0 .079-.071.194-.158.256a.41.41 0 0 0-.158.292c0 .106-.047.178-.118.178s-.118.07-.118.157-.036.157-.079.157-.079.071-.079.157-.035.157-.079.157-.079.053-.079.117-.031.118-.07.118-.093.088-.12.196-.084.196-.127.196-.077.071-.077.157-.036.157-.079.157-.079.07-.079.156-.035.157-.079.157-.079.053-.079.118-.034.118-.077.118-.1.088-.127.196-.081.196-.119.196-.071.07-.071.157-.035.156-.079.156-.079.053-.079.118-.035.117-.078.117-.079.071-.079.157-.053.157-.119.157c-.073 0-.118.074-.118.196 0 .108-.035.196-.079.196s-.079.071-.079.157-.03.157-.066.157-.133.123-.215.274-.176.275-.21.275-.061.07-.061.157-.035.156-.079.156-.078.08-.078.178-.089.244-.198.325-.197.212-.197.293-.035.146-.079.146-.078.07-.078.156-.029.157-.064.157-.107.124-.162.275-.151.274-.213.274c-.069 0-.114.078-.114.196 0 .108-.035.196-.078.196s-.079.071-.079.157-.036.157-.079.157-.079.051-.079.114-.089.202-.197.31-.197.268-.197.356-.036.161-.079.161-.079.07-.079.157-.035.156-.079.156-.079.053-.079.118-.053.118-.118.118-.118.069-.118.156-.036.157-.079.157-.079.073-.079.163-.044.211-.099.272c-.234.259-.295.348-.295.425 0 .045-.036.081-.079.081s-.079.071-.079.157-.036.157-.079.157-.079.088-.079.196-.035.196-.079.196-.079.106-.079.235.036.235.079.235.079.089.079.197.036.196.079.196.079.052.079.117.035.118.079.118.079.07.079.157.052.157.118.157.118.069.118.156.036.157.079.157.079.088.079.196.035.196.079.196.079.038.079.084.044.133.098.194c.246.272.296.351.296.464 0 .066.036.121.079.121s.079.072.079.16.088.255.197.372.197.256.197.31.035.099.079.099.079.07.079.157.035.156.079.156.078.089.078.196.046.196.104.196.152.124.212.275.137.274.172.274.065.071.065.157.035.157.078.157.079.088.079.196c0 .196 0 .196 45.505.196l45.505-.162a.47.47 0 0 1 .098-.272c.234-.259.296-.348.296-.425 0-.045.036-.082.079-.082s.079-.07.079-.157.035-.157.079-.157.079-.054.079-.121.088-.203.197-.303.197-.239.197-.31.035-.128.079-.128.079-.08.079-.178.088-.243.197-.324.197-.213.197-.293.035-.146.079-.146.079-.071.079-.157.035-.157.078-.157.079-.051.079-.114.089-.202.197-.31.198-.268.198-.356.035-.161.079-.161.078-.07.078-.156.036-.157.079-.157.079-.053.079-.118.053-.118.118-.118.119-.069.119-.156.035-.157.079-.157.078-.086.078-.19.045-.21.099-.235c.079-.036.079-.055 0-.091-.054-.026-.099-.131-.099-.236s-.035-.189-.078-.189-.079-.071-.079-.157-.053-.157-.119-.157-.118-.07-.118-.157-.035-.157-.079-.157-.079-.052-.079-.117-.035-.118-.078-.118-.079-.073-.079-.162a.47.47 0 0 0-.099-.272c-.234-.259-.296-.348-.296-.425 0-.045-.035-.082-.079-.082s-.078-.07-.078-.157-.036-.156-.079-.156-.079-.067-.079-.149-.053-.169-.118-.194-.119-.116-.119-.204-.035-.159-.079-.159-.078-.053-.078-.118-.036-.117-.079-.117-.079-.056-.079-.124-.044-.172-.099-.232c-.251-.279-.295-.354-.295-.504 0-.088-.036-.16-.079-.16s-.079-.053-.079-.117-.036-.118-.079-.118-.079-.071-.079-.157-.053-.157-.118-.157-.119-.069-.119-.156-.035-.157-.078-.157-.079-.081-.079-.179a.41.41 0 0 0-.158-.292.41.41 0 0 1-.158-.292c0-.106-.047-.178-.118-.178s-.118-.07-.118-.157-.036-.157-.079-.157-.079-.053-.079-.118-.036-.117-.079-.117-.079-.071-.079-.157-.035-.157-.077-.157-.1-.088-.127-.196-.081-.196-.12-.196-.07-.07-.07-.157-.036-.157-.079-.157-.079-.053-.079-.117-.035-.118-.079-.118-.079-.07-.079-.157-.052-.156-.118-.156c-.073 0-.118-.075-.118-.197 0-.107-.036-.196-.079-.196s-.079-.07-.079-.156-.035-.157-.079-.157-.079-.038-.079-.084-.044-.133-.098-.194c-.249-.276-.296-.352-.296-.486 0-.078-.071-.193-.158-.256s-.157-.178-.157-.258a.44.44 0 0 0-.099-.254c-.246-.273-.296-.352-.296-.468 0-.068-.088-.213-.197-.321s-.197-.247-.197-.31-.036-.114-.079-.114-.079-.07-.079-.157-.035-.156-.079-.156-.078-.071-.078-.157-.036-.157-.079-.157-.079-.038-.079-.084-.045-.133-.099-.193c-.252-.279-.296-.355-.296-.504 0-.088-.035-.16-.078-.16s-.079-.053-.079-.118-.036-.117-.079-.117-.079-.071-.079-.157-.053-.157-.118-.157-.119-.07-.119-.157-.035-.157-.078-.157-.079-.088-.079-.196-.036-.196-.079-.196-.079-.037-.079-.084-.044-.133-.099-.193c-.245-.272-.295-.351-.295-.464 0-.067-.036-.121-.079-.121s-.079-.072-.079-.161-.089-.248-.197-.356-.197-.247-.197-.31-.036-.114-.079-.114-.079-.071-.079-.157-.036-.157-.079-.157-.079-.038-.079-.084-.044-.133-.098-.193c-.252-.279-.296-.354-.296-.504 0-.088-.036-.16-.079-.16s-.079-.07-.079-.157-.035-.157-.079-.157-.079-.037-.079-.083-.044-.134-.098-.194c-.252-.279-.296-.354-.296-.503 0-.088-.035-.161-.079-.161s-.079-.07-.079-.156-.036-.157-.08-.157-.139-.124-.212-.275-.16-.274-.195-.274-.065-.088-.065-.196-.035-.196-.079-.196-.078-.071-.078-.157-.053-.157-.119-.157-.118-.053-.118-.118-.036-.117-.079-.117-.079-.071-.079-.157-.035-.157-.079-.157-.079-.072-.079-.16-.088-.249-.197-.357-.197-.247-.197-.31-.035-.114-.079-.114-.079-.07-.079-.157-.035-.156-.078-.156-.079-.089-.079-.196-.038-.196-.085-.196c-.139 0-.31-.213-.31-.387 0-.089-.035-.162-.079-.162s-.078-.071-.078-.157-.028-.157-.061-.157-.128-.123-.21-.274-.178-.275-.215-.275-.066-.071-.066-.157-.036-.157-.079-.157-.079-.088-.079-.196c0-.122-.045-.196-.118-.196-.066 0-.119-.053-.119-.117s-.035-.118-.079-.118-.078-.07-.078-.157-.036-.157-.079-.157-.079-.07-.079-.156-.036-.157-.079-.157-.079-.053-.079-.118c0-.104-1.003-.118-8.557-.118-8.504 0-8.556 0-8.556-.156 0-.087.035-.157.078-.157s.079-.052.079-.114.089-.202.197-.31.198-.269.198-.357.035-.16.078-.16.079-.071.079-.157.036-.157.079-.157.079-.037.079-.084.044-.133.099-.193c.251-.279.295-.354.295-.504 0-.088.036-.16.079-.16s.079-.057.079-.128.089-.21.197-.31.197-.236.197-.303.036-.121.079-.121.079-.073.079-.163.045-.211.099-.272c.234-.259.295-.348.295-.425 0-.044.036-.081.079-.081s.079-.071.079-.157.036-.157.079-.157.079-.073.079-.162a.47.47 0 0 1 .098-.272c.235-.26.296-.348.296-.425 0-.045.036-.082.079-.082s.079-.07.079-.157.035-.157.079-.157.079-.071.079-.159.053-.18.118-.204.118-.112.118-.194.036-.148.079-.148.079-.053.079-.118.035-.117.079-.117.079-.071.079-.157.035-.157.077-.157.1-.088.127-.196.081-.196.12-.196.07-.071.07-.157.036-.157.079-.157.079-.053.079-.118.035-.117.079-.117.079-.056.079-.123.044-.173.098-.233c.252-.279.296-.354.296-.503 0-.088.035-.161.079-.161s.079-.053.079-.117.035-.118.078-.118.079-.07.079-.157.053-.156.119-.156.118-.07.118-.157.035-.157.079-.157.079-.088.079-.196.029-.196.066-.196.133-.124.215-.275.176-.274.21-.274.061-.071.061-.157.035-.157.079-.157.078-.08.078-.177.089-.244.198-.325.197-.213.197-.293.035-.146.079-.146.078-.07.078-.157.036-.156.079-.156.079-.073.079-.163c0-.173.171-.386.31-.386.046 0 .084-.088.084-.196s.036-.196.079-.196.079-.071.079-.157.036-.157.079-.157.079-.038.079-.084.044-.133.099-.193c.25-.278.295-.354.295-.497 0-.085.045-.175.099-.2.079-.036.079-.055 0-.091-.054-.025-.099-.131-.099-.235s-.035-.19-.079-.19-.078-.071-.078-.157-.053-.157-.119-.157-.118-.072-.118-.178a.41.41 0 0 0-.158-.292c-.087-.062-.158-.178-.158-.258s-.044-.195-.098-.255c-.249-.276-.296-.352-.296-.486a.38.38 0 0 0-.158-.256.41.41 0 0 1-.157-.292c0-.106-.048-.178-.119-.178-.065 0-.118-.07-.118-.157s-.035-.157-.079-.157-.079-.072-.079-.16-.088-.249-.197-.357-.197-.247-.197-.31-.035-.114-.079-.114-.079-.07-.079-.157-.035-.157-.079-.157-.078-.07-.078-.156-.036-.157-.079-.157-.079-.053-.079-.118-.033-.117-.074-.117-.098-.078-.128-.173a.82.82 0 0 0-.158-.275c-.16-.159-43.486-.143-43.627.016zm60.548.079c0 .122-.044.196-.118.196-.066 0-.118.069-.118.157s-.036.156-.079.156-.079.081-.079.179a.41.41 0 0 1-.158.292.41.41 0 0 0-.157.292c0 .106-.048.178-.119.178-.065 0-.118.07-.118.157s-.035.157-.079.157-.079.072-.079.16-.088.249-.197.357-.197.247-.197.31-.036.114-.079.114-.079.071-.079.157-.035.157-.079.157-.078.073-.078.162c0 .174-.171.387-.31.387-.047 0-.085.088-.085.196s-.035.196-.079.196-.079.07-.079.157-.035.156-.078.156-.079.052-.079.114-.089.203-.197.31-.198.269-.198.357-.035.16-.078.16-.079.106-.079.236.035.235.079.235.078.038.078.084.045.133.099.193c.249.276.296.353.296.486 0 .079.071.194.157.256s.158.179.158.258.045.195.099.255c.247.274.296.352.296.474a.42.42 0 0 0 .146.259c.08.069.172.206.202.303s.09.176.13.176.074.071.074.157.035.157.078.157.079.053.079.118.036.117.079.117.079.071.079.157.035.157.077.157.1.088.127.196.081.196.12.196.07.071.07.157.036.157.079.157.079.052.079.117.036.118.079.118.079.07.079.157.052.157.118.157.118.066.118.148.057.17.125.196 7.788.048 17.153.048l17.028.156c0 .087-.035.157-.078.157s-.079.072-.079.16c0 .15-.044.225-.296.504-.054.06-.099.147-.099.193s-.035.084-.079.084-.078.071-.078.157-.036.157-.079.157-.079.073-.079.162-.044.212-.099.272c-.234.259-.295.348-.295.425 0 .045-.036.082-.079.082s-.079.07-.079.157-.036.156-.079.156-.079.074-.079.163a.47.47 0 0 1-.098.272c-.235.259-.296.348-.296.425 0 .045-.036.082-.079.082s-.079.07-.079.156-.035.157-.079.157-.079.072-.079.159-.053.18-.118.205-.118.112-.118.193-.036.149-.079.149-.079.053-.079.118-.035.117-.079.117-.079.071-.079.157-.035.157-.077.157-.1.088-.127.196-.081.196-.12.196-.07.07-.07.157-.036.156-.079.156-.079.054-.079.118-.035.118-.079.118-.079.07-.079.157-.052.156-.118.156c-.073 0-.118.075-.118.197 0 .107-.036.196-.079.196s-.079.07-.079.156-.035.157-.079.157-.079.053-.079.118-.035.117-.078.117-.079.071-.079.157-.053.157-.119.157c-.073 0-.118.074-.118.196 0 .108-.035.196-.079.196s-.079.071-.079.157-.035.157-.078.157-.079.038-.079.084-.045.13-.099.186-.151.178-.215.269c-.116.167-.116.166-8.621.166-8.893 0-8.731-.005-8.731.309 0 .046-.035.084-.079.084s-.079.07-.079.156-.031.157-.07.157-.093.089-.12.196-.084.196-.127.196-.077.071-.077.157-.035.157-.079.157-.079.053-.079.118-.035.117-.079.117-.078.071-.078.157-.036.157-.079.157-.079.051-.079.114-.089.202-.197.31-.198.268-.198.357-.035.16-.078.16-.079.07-.079.157-.053.157-.119.157-.118.072-.118.178a.41.41 0 0 1-.158.292c-.086.062-.157.178-.157.258s-.045.194-.099.255c-.249.276-.296.352-.296.486 0 .078-.071.193-.157.256a.41.41 0 0 0-.158.292c0 .098-.032.178-.071.178-.133 0-.165.247-.047.365.065.064.118.167.118.229s.035.112.079.112.079.07.079.157.035.157.079.157.078.088.078.196.038.196.085.196c.139 0 .31.213.31.386 0 .09.035.163.079.163s.078.07.078.156.036.157.079.157.079.052.079.114.089.203.197.31.197.269.197.357.036.16.079.16.079.067.079.149.053.168.119.193.118.109.118.187.071.193.158.255.157.194.157.292.036.179.079.179.079.07.079.157.053.156.118.156c.071 0 .119.073.119.179 0 .098.071.23.157.292s.158.178.158.258c0 .392-1.265.369 20.584.369l20.46.102c.056.056.127.179.158.274s.088.173.128.173.074.071.074.157.035.157.079.157.079.072.079.16.088.249.197.357.197.247.197.31.035.114.079.114.079.07.079.157.035.156.078.156.079.053.079.118.036.118.079.118.079.07.079.157.053.156.118.156c.074 0 .119.074.119.196 0 .108.035.197.079.197s.078.07.078.156.036.157.079.157.079.038.079.084.045.133.099.194c.251.279.295.353.295.503 0 .088.036.16.079.16s.079.071.079.157.036.157.079.157.079.038.079.084.044.133.098.193c.252.279.296.354.296.504 0 .088.036.16.079.16s.079.07.079.157.053.156.118.156.119.053.119.118.035.118.078.118.079.07.079.157.036.156.079.156.079.071.079.157.035.157.079.157.079.053.079.118.035.117.077.117.1.088.127.196.081.196.12.196.07.071.07.157.036.157.079.157.079.07.079.157.035.157.079.157.079.037.079.084.044.133.098.193c.252.279.296.354.296.504 0 .088.035.16.079.16s.079.054.079.121.088.203.197.303.197.239.197.31.035.128.079.128.079.073.079.162a.47.47 0 0 0 .098.272c.234.26.296.348.296.425 0 .045.035.082.079.082s.079.071.079.157.035.157.079.157.078.088.078.196.038.196.085.196c.139 0 .31.213.31.386 0 .09.035.163.079.163s.078.07.078.157.036.156.079.156.079.052.079.114.089.203.197.311.197.268.197.356.036.16.079.16.079.071.079.157.033.157.074.157.099.079.129.176a.8.8 0 0 0 .203.304c.08.069.146.202.146.294s.036.167.079.167.079.071.079.157.053.157.118.157c.071 0 .119.072.119.178a.41.41 0 0 0 .157.292c.087.062.158.179.158.258a.44.44 0 0 0 .099.255c.234.259.295.348.295.425 0 .045.036.082.079.082s.079.07.079.156.036.157.079.157.079.088.079.196c0 .122.045.196.118.196.066 0 .118.07.118.157s.036.157.079.157.079.053.079.118.036.117.079.117.079.071.079.157.035.157.077.157.1.088.127.196.081.196.12.196.07.071.07.157.036.157.079.157.079.053.079.117.035.118.079.118.079.07.079.157.052.156.118.156.118.07.118.157.036.157.079.157.079.088.079.196.035.196.079.196.079.053.079.118.035.118.079.118.078.07.078.156.053.157.119.157.118.07.118.157.036.157.079.157.079.053.079.117.035.118.079.118.078.071.078.157.032.157.071.157.092.088.12.196.084.196.126.196.078.07.078.157.035.156.079.156.079.053.079.118.035.118.078.118.079.067.079.148.053.169.119.194.118.116.118.204.035.159.079.159.079.071.079.157.035.157.078.157.079.038.079.084.045.133.099.193c.252.28.296.354.296.504 0 .088.035.16.078.16s.079.071.079.157.036.157.079.157.079.037.079.084.044.133.099.193c.249.276.295.353.295.486 0 .079.071.194.158.256s.158.177.158.255.053.162.118.187.118.112.118.194.036.148.079.148.079.072.079.161.089.248.197.356.198.247.198.31.035.114.078.114.079.071.079.157.036.157.079.157.079.072.079.16.089.249.197.357.197.247.197.31.036.114.079.114.079.07.079.157.036.157.079.157.079.066.079.148.053.169.118.194.118.116.118.204c0 .159 0 .159-108.478.159-108.425 0-108.477 0-108.477-.157 0-.086.035-.156.079-.156s.079-.073.079-.163.044-.211.099-.272c.249-.276.296-.352.296-.486 0-.078.071-.193.158-.256a.41.41 0 0 0 .158-.291c0-.107.048-.179.118-.179s.118-.07.118-.157.035-.157.079-.157.079-.053.079-.117.035-.118.079-.118.079-.071.079-.157.032-.157.07-.157.093-.088.12-.196.084-.196.127-.196.077-.07.077-.157.035-.156.079-.156.079-.053.079-.118.035-.118.079-.118.079-.07.079-.157.053-.156.118-.156.118-.072.118-.179a.41.41 0 0 1 .158-.292c.087-.062.158-.178.158-.258a.44.44 0 0 1 .099-.254c.245-.272.296-.352.296-.465 0-.066.035-.121.079-.121s.079-.052.079-.117.035-.118.079-.118.079-.073.079-.162.044-.212.099-.272c.245-.272.296-.351.296-.464 0-.067.035-.121.079-.121s.079-.053.079-.118.035-.117.079-.117.079-.072.079-.16.053-.179.118-.204.118-.112.118-.194.035-.148.079-.148.079-.053.079-.118.035-.117.079-.117.079-.056.079-.124.044-.172.099-.232c.249-.277.296-.353.296-.486 0-.079.071-.194.158-.256s.158-.194.158-.292c0-.107.048-.179.118-.179s.118-.069.118-.157.035-.156.079-.156.079-.053.079-.118.035-.118.079-.118.079-.07.079-.157.032-.156.07-.156.093-.088.12-.196.084-.196.127-.196.077-.071.077-.157.035-.157.079-.157.079-.053.079-.118.035-.117.079-.117.079-.071.079-.157.053-.157.118-.157c.074 0 .118-.074.118-.196 0-.108.035-.196.079-.196s.079-.071.079-.157.035-.157.079-.157.079-.053.079-.117.035-.118.079-.118.079-.071.079-.157.053-.157.118-.157.118-.072.118-.178a.41.41 0 0 1 .158-.292c.087-.062.158-.178.158-.258s.044-.195.099-.255c.252-.279.296-.354.296-.503 0-.088.035-.16.079-.16s.079-.071.079-.157-.035-.157-.079-.157-.079-.038-.079-.084-.044-.133-.099-.193c-.249-.277-.296-.353-.296-.487 0-.078-.071-.193-.158-.255s-.158-.179-.158-.259-.044-.194-.099-.254c-.245-.272-.296-.351-.296-.464 0-.067-.036-.121-.079-.121s-.079-.053-.079-.118-.035-.117-.079-.117-.079-.067-.079-.149-.053-.169-.118-.194-.118-.116-.118-.204-.035-.159-.079-.159-.079-.053-.079-.118-.035-.117-.079-.117-.079-.056-.079-.124-.044-.172-.099-.232c-.234-.26-.296-.348-.296-.425 0-.045-.035-.082-.079-.082s-.079-.07-.079-.157-.035-.157-.079-.157-.079-.088-.079-.196c0-.122-.045-.196-.118-.196-.066 0-.118-.069-.118-.156s-.035-.157-.079-.157-.079-.053-.079-.118c0-.103-.421-.118-3.312-.118-2.303 0-3.312.026-3.312.084 0 .047-.044.134-.099.194-.234.259-.296.348-.296.425 0 .045-.035.082-.079.082s-.079.07-.079.156-.035.157-.079.157-.079.055-.079.122-.089.203-.197.303-.197.239-.197.31-.035.128-.079.128-.079.072-.079.16c0 .149-.044.224-.296.503-.054.061-.099.148-.099.194s-.035.084-.079.084-.079.07-.079.157-.036.156-.079.156-.079.073-.079.163-.044.211-.099.272c-.234.259-.296.348-.296.425a.08.08 0 0 1-.079.081c-.043 0-.079.071-.079.157s-.035.157-.079.157-.079.088-.079.196c0 .122-.045.196-.118.196-.066 0-.118.07-.118.157s-.035.157-.079.157-.079.053-.079.117-.035.118-.079.118-.079.071-.079.157-.035.157-.079.157-.079.051-.079.114-.089.202-.197.31-.197.268-.197.356-.035.161-.079.161-.079.07-.079.157-.053.156-.118.156-.118.072-.118.179a.41.41 0 0 1-.158.292c-.087.062-.158.178-.158.258a.44.44 0 0 1-.099.254c-.249.277-.296.353-.296.487 0 .078-.071.193-.158.255s-.158.179-.158.259-.044.194-.099.254c-.249.276-.296.353-.296.486 0 .079-.071.194-.158.256s-.158.177-.158.255-.053.162-.118.187-.118.112-.118.194-.035.148-.079.148-.079.071-.079.157-.035.157-.079.157-.079.053-.079.117-.035.118-.077.118-.1.088-.127.196-.081.196-.12.196-.07.071-.07.157-.035.157-.079.157-.079.053-.079.118-.035.117-.079.117-.079.071-.079.157-.053.157-.118.157c-.074 0-.118.074-.118.196 0 .108-.035.196-.079.196s-.079.07-.079.157-.035.157-.079.157-.079.037-.079.084-.044.133-.099.193c-.245.272-.296.351-.296.464 0 .067-.035.121-.079.121s-.079.072-.079.16-.089.256-.197.372-.197.256-.197.31-.035.099-.079.099-.079.071-.079.157-.035.157-.079.157-.079.073-.079.162c0 .174-.171.387-.31.387-.046 0-.085.088-.085.196s-.035.196-.079.196-.079.07-.079.156-.035.157-.079.157-.079.052-.079.114-.089.203-.197.31-.197.269-.197.357-.036.16-.079.16-.079.071-.079.157-.035.157-.079.157-.079.053-.079.118-.053.117-.118.117-.118.07-.118.157-.035.157-.079.157-.079.088-.079.196-.029.196-.064.196-.124.123-.196.274-.168.275-.212.275-.08.07-.08.157-.035.157-.079.157-.079.073-.079.162a.47.47 0 0 1-.099.272c-.234.259-.296.348-.296.425a.08.08 0 0 1-.079.081c-.043 0-.079.071-.079.157s-.035.157-.079.157-.079.073-.079.163-.044.211-.099.271c-.234.26-.296.349-.296.425 0 .045-.035.082-.079.082s-.079.071-.079.157-.035.157-.079.157-.079.051-.079.114-.089.202-.197.31-.197.268-.197.356-.035.161-.079.161-.079.07-.079.157-.033.156-.073.156-.099.08-.13.177-.122.233-.202.303-.147.202-.147.294-.035.167-.079.167-.079.071-.079.157-.053.157-.118.157-.118.07-.118.157-.035.157-.079.157-.079.053-.079.117-.035.118-.079.118-.079.073-.079.162-.044.212-.099.272c-.214.238-.296.346-.296.392 0 .026.044.097.099.157.245.272.296.351.296.464 0 .067.035.121.079.121s.079.072.079.161.089.248.197.356.197.247.197.31.035.114.079.114.079.071.079.157.035.157.079.157.079.088.079.196.038.196.085.196c.139 0 .31.213.31.387 0 .089.035.162.079.162s.079.07.079.157.035.157.079.157a.08.08 0 0 1 .079.081c0 .077.062.166.296.425.054.061.099.183.099.272s.035.163.079.163.079.07.079.156.046.157.102.157.147.124.202.275.133.274.174.274.074.073.074.163.051.212.113.274c.097.097 16.444.112 121.812.112l121.801-.102c.056-.056.127-.179.158-.274s.088-.173.128-.173.074-.071.074-.157.035-.157.079-.157.079-.053.079-.117.035-.118.078-.118.079-.07.079-.157.033-.156.074-.156.099-.08.129-.177.122-.233.203-.303.146-.202.146-.294.036-.167.079-.167.079-.071.079-.157.053-.157.118-.157c.071 0 .119-.072.119-.179 0-.098.071-.229.157-.292s.158-.178.158-.258a.44.44 0 0 1 .099-.254c.249-.277.295-.353.295-.486 0-.079.071-.194.158-.256s.158-.177.158-.255.053-.162.118-.187.119-.112.119-.194.035-.148.078-.148.079-.053.079-.118.036-.118.079-.118.079-.07.079-.156-.035-.157-.079-.157-.079-.071-.079-.157-.031-.157-.07-.157-.093-.088-.12-.196-.084-.196-.127-.196-.077-.053-.077-.118-.036-.117-.079-.117-.079-.071-.079-.157-.035-.157-.079-.157-.079-.07-.079-.157-.031-.157-.07-.157-.092-.088-.12-.196-.084-.196-.126-.196-.078-.053-.078-.117-.035-.118-.079-.118-.079-.07-.079-.157-.035-.157-.078-.157-.079-.066-.079-.148-.054-.169-.119-.194-.118-.116-.118-.204-.035-.159-.079-.159-.079-.053-.079-.118-.035-.117-.078-.117-.079-.056-.079-.124-.045-.172-.099-.232c-.249-.277-.296-.353-.296-.487 0-.078-.071-.193-.157-.255s-.158-.194-.158-.292c0-.107-.048-.179-.118-.179s-.119-.069-.119-.157-.035-.157-.079-.157-.078-.052-.078-.117-.036-.118-.079-.118-.079-.07-.079-.157-.032-.156-.071-.156-.092-.089-.119-.196-.085-.196-.127-.196-.077-.071-.077-.157-.036-.157-.079-.157-.079-.053-.079-.118-.036-.117-.079-.117-.079-.071-.079-.157-.035-.157-.077-.157-.1-.088-.127-.196-.081-.196-.12-.196-.07-.071-.07-.157-.036-.157-.079-.157-.079-.053-.079-.117-.035-.118-.079-.118-.079-.071-.079-.157-.052-.157-.118-.157c-.074 0-.118-.074-.118-.196 0-.107-.036-.196-.079-.196s-.079-.07-.079-.157-.036-.156-.079-.156-.079-.038-.079-.084-.044-.134-.098-.194c-.252-.279-.296-.354-.296-.503 0-.088-.036-.16-.079-.16s-.079-.071-.079-.157-.035-.157-.079-.157-.079-.038-.079-.084-.044-.133-.098-.193c-.245-.272-.296-.352-.296-.465 0-.066-.035-.121-.079-.121s-.079-.052-.079-.117-.034-.118-.077-.118-.1-.088-.127-.196-.081-.196-.12-.196-.07-.071-.07-.157-.035-.157-.079-.157-.079-.07-.079-.156-.035-.157-.079-.157-.078-.053-.078-.118-.035-.117-.078-.117-.099-.089-.127-.196-.081-.197-.119-.197-.071-.07-.071-.156-.035-.157-.079-.157-.078-.071-.078-.157-.036-.157-.079-.157-.079-.038-.079-.084-.044-.133-.099-.193c-.251-.279-.295-.354-.295-.504 0-.088-.036-.16-.079-.16s-.079-.054-.079-.121-.089-.203-.197-.303-.198-.24-.198-.31-.035-.128-.078-.128-.079-.074-.079-.163-.045-.212-.099-.272c-.234-.259-.296-.348-.296-.425 0-.045-.035-.081-.078-.081s-.079-.071-.079-.157-.036-.157-.079-.157-.079-.088-.079-.196-.041-.196-.09-.196c-.121 0-.299-.242-.302-.412-.001-.075-.038-.137-.081-.137s-.079-.071-.079-.157-.036-.157-.079-.157-.079-.051-.079-.114-.089-.202-.197-.31-.197-.268-.197-.356-.036-.161-.079-.161-.079-.07-.079-.156-.033-.157-.073-.157-.099-.08-.13-.177-.122-.233-.202-.303-.147-.202-.147-.294-.035-.167-.079-.167-.079-.071-.079-.157-.052-.157-.118-.157c-.071 0-.118-.072-.118-.179 0-.098-.071-.229-.158-.292s-.158-.178-.158-.258-.044-.194-.098-.254c-.234-.259-.296-.348-.296-.425 0-.045-.036-.082-.079-.082s-.079-.07-.079-.157-.035-.157-.079-.157-.078-.088-.078-.196c0-.122-.045-.196-.119-.196-.065 0-.118-.069-.118-.156s-.036-.157-.079-.157-.079-.053-.079-.118-.035-.118-.079-.118-.079-.07-.079-.156-.031-.157-.07-.157-.092-.088-.12-.196-.084-.196-.126-.196-.078-.071-.078-.157-.035-.157-.079-.157-.079-.053-.079-.118-.035-.117-.078-.117-.079-.071-.079-.157-.027-.157-.059-.157c-.08-.001-.336-.454-.336-.594 0-.061-.035-.111-.079-.111s-.078-.053-.078-.118-.036-.118-.079-.118-.079-.07-.079-.157-.053-.156-.118-.156-.119-.07-.119-.157-.035-.157-.079-.157-.078-.088-.078-.196-.036-.196-.079-.196-.079-.038-.079-.084-.044-.133-.099-.193c-.245-.272-.295-.352-.295-.465 0-.066-.036-.121-.079-.121s-.079-.053-.079-.117-.036-.118-.079-.118-.079-.07-.079-.157-.035-.157-.077-.157-.1-.088-.127-.196-.081-.196-.12-.196-.07-.07-.07-.156-.036-.157-.079-.157-.079-.038-.079-.084a.37.37 0 0 0-.099-.194c-.251-.279-.295-.354-.295-.503 0-.088-.036-.16-.079-.16s-.079-.071-.079-.157-.036-.157-.079-.157-.079-.038-.079-.084-.044-.133-.098-.193c-.252-.279-.296-.354-.296-.504 0-.088-.036-.16-.079-.16s-.079-.07-.079-.157-.035-.157-.079-.157-.079-.053-.079-.117-.053-.118-.118-.118-.118-.07-.118-.157-.036-.156-.079-.156-.079-.089-.079-.197-.035-.196-.079-.196-.079-.07-.079-.156-.052-.157-.118-.157-.118-.053-.118-.118-.036-.118-.079-.118-.079-.07-.079-.156-.035-.157-.079-.157-.079-.072-.079-.16-.088-.249-.197-.357-.197-.247-.197-.31-.035-.114-.079-.114-.079-.071-.079-.157-.035-.157-.079-.157-.078-.088-.078-.196-.038-.196-.085-.196c-.139 0-.31-.213-.31-.386 0-.09-.035-.163-.079-.163s-.078-.07-.078-.157-.036-.156-.079-.156-.079-.052-.079-.115-.089-.202-.197-.31-.198-.268-.198-.356-.035-.16-.078-.16-.079-.071-.079-.157-.028-.157-.061-.157-.128-.124-.21-.275-.178-.274-.215-.274-.066-.088-.066-.196-.036-.196-.079-.196-.079-.071-.079-.157-.053-.157-.118-.157-.119-.069-.119-.157-.035-.156-.078-.156-.079-.053-.079-.118-.036-.118-.079-.118-.079-.07-.079-.156-.032-.157-.07-.157-.093-.089-.12-.196-.085-.196-.127-.196-.077-.053-.077-.118-.036-.118-.079-.118-.079-.07-.079-.156-.036-.157-.079-.157-.079-.067-.079-.149-.053-.168-.118-.193-.118-.117-.118-.205-.036-.159-.079-.159-.079-.053-.079-.118-.036-.117-.079-.117-.079-.056-.079-.123-.044-.173-.098-.233c-.252-.279-.296-.354-.296-.504 0-.088-.036-.16-.079-.16s-.079-.053-.079-.117-.035-.118-.079-.118-.079-.055-.079-.123-.044-.173-.098-.233c-.25-.276-.296-.352-.296-.486 0-.078-.071-.193-.158-.256a.41.41 0 0 1-.157-.292c0-.106-.048-.178-.119-.178-.065 0-.118-.07-.118-.157s-.036-.157-.079-.157-.079-.053-.079-.117-.035-.118-.079-.118-.079-.071-.079-.157-.034-.157-.077-.157-.099-.088-.127-.196-.081-.196-.119-.196-.071-.07-.071-.157-.035-.156-.079-.156-.079-.053-.079-.118-.035-.118-.078-.118-.079-.07-.079-.157-.035-.156-.078-.156-.099-.089-.126-.196c-.05-.196-.05-.197-8.559-.197s-8.509 0-8.509-.235c0-.129.036-.235.079-.235s.079-.053.079-.118.036-.117.079-.117.079-.067.079-.149.053-.168.118-.193.118-.117.118-.205.036-.159.079-.159.079-.053.079-.118.036-.117.079-.117.079-.071.079-.157.035-.157.079-.157.079-.07.079-.157.052-.156.118-.156c.074 0 .118-.074.118-.196 0-.108.036-.197.079-.197s.079-.053.079-.117.035-.118.079-.118.079-.055.079-.123.044-.172.098-.233c.25-.276.296-.352.296-.486 0-.078.071-.193.158-.256s.157-.193.157-.291c0-.107.048-.179.119-.179.065 0 .118-.07.118-.157s.036-.157.079-.157.079-.075.079-.167.066-.224.146-.294.172-.206.203-.303.089-.177.129-.177.074-.07.074-.157.035-.156.079-.156.079-.073.079-.161.088-.248.197-.356.197-.248.197-.31.035-.114.079-.114.079-.071.079-.157.035-.157.078-.157.079-.073.079-.162c0-.174.171-.387.31-.387.047 0 .085-.088.085-.196s.035-.196.079-.196.078-.071.078-.157.036-.157.079-.157.079-.051.079-.114.089-.202.197-.31.197-.268.197-.356.036-.161.079-.161.079-.07.079-.156.036-.157.079-.157.079-.053.079-.118.053-.118.118-.118.119-.069.119-.156.035-.157.078-.157.079-.088.079-.196.036-.196.079-.196.079-.071.079-.157.053-.157.118-.157.119-.053.119-.118.035-.117.078-.117.079-.071.079-.157.036-.157.079-.157.079-.073.079-.162.044-.212.099-.272c.234-.26.295-.348.295-.425 0-.045.036-.082.079-.082s.079-.07.079-.157.036-.156.079-.156.079-.074.079-.163a.47.47 0 0 1 .098-.272c.234-.259.296-.348.296-.425 0-.045.036-.081.079-.081s.079-.071.079-.157.035-.157.079-.157.079-.072.079-.159.053-.18.118-.205.118-.141.118-.262-.053-.261-.118-.315-.118-.146-.118-.206-.036-.108-.079-.108-.079-.07-.079-.157-.036-.156-.079-.156-.079-.073-.079-.161-.089-.255-.197-.371-.197-.256-.197-.311-.036-.098-.079-.098-.079-.071-.079-.157-.035-.157-.079-.157-.079-.088-.079-.196c0-.122-.044-.196-.118-.196-.065 0-.118-.053-.118-.118s-.036-.117-.079-.117-.079-.071-.079-.157-.035-.157-.079-.157-.079-.071-.079-.157-.035-.157-.079-.157-.078-.051-.078-.114-.089-.202-.198-.31-.197-.268-.197-.356-.035-.161-.079-.161-.078-.067-.078-.148-.054-.169-.119-.194-.118-.109-.118-.187-.071-.193-.158-.255a.41.41 0 0 1-.158-.292c0-.178 0-.178-23.817-.178l-23.817.196zm-30.255 11.056c.054.14-.016.353-.116.353-.039 0-.07.081-.07.179s-.071.229-.158.292a.41.41 0 0 0-.158.291c0 .107-.047.179-.118.179s-.118.07-.118.157-.036.157-.079.157-.079.08-.079.178a.41.41 0 0 1-.158.292.41.41 0 0 0-.157.292c0 .107-.048.179-.119.179-.065 0-.118.069-.118.156s-.036.157-.079.157-.079.076-.079.168-.066.224-.146.294-.172.206-.203.303-.089.176-.129.176-.074.071-.074.157-.035.157-.079.157-.079.073-.079.162c0 .174-.17.387-.309.387-.047 0-.085.088-.085.196s-.035.196-.079.196-.079.07-.079.157-.035.157-.078.157-.079.051-.079.114-.089.202-.198.31-.197.268-.197.356-.035.161-.079.161-.078.07-.078.156-.036.157-.079.157-.079.052-.079.114-.089.203-.197.31-.197.269-.197.357-.036.16-.079.16-.079.071-.079.157-.033.157-.074.157-.099.079-.129.176a.8.8 0 0 1-.203.304c-.08.069-.146.202-.146.294s-.033.167-.074.167-.096.07-.123.157c-.05.156-.12.156-11.914.156-11.811 0-11.864 0-11.864-.156 0-.087.053-.157.118-.157.074 0 .119-.074.119-.196 0-.108.035-.196.078-.196s.079-.071.079-.157.036-.157.079-.157.079-.038.079-.084.044-.133.099-.193c.249-.277.295-.353.295-.486 0-.079.071-.194.158-.256a.41.41 0 0 0 .158-.292c0-.107.048-.179.118-.179s.118-.069.118-.157.036-.156.079-.156.079-.073.079-.161.089-.248.197-.356.197-.248.197-.31.036-.114.079-.114.079-.071.079-.157.036-.157.079-.157.079-.073.079-.162c0-.174.171-.387.31-.387.046 0 .084-.088.084-.196s.036-.196.079-.196.079-.071.079-.157.035-.157.079-.157.079-.038.079-.084.044-.133.098-.193c.252-.279.296-.354.296-.504 0-.088.036-.16.079-.16s.079-.07.079-.157.035-.156.079-.156.078-.037.078-.082c0-.077.062-.166.296-.425a.47.47 0 0 0 .099-.272c0-.089.035-.162.079-.162s.079-.058.079-.128.088-.211.197-.311.197-.236.197-.302.035-.122.079-.122.079-.07.079-.157.035-.156.078-.156.079-.038.079-.084c0-.109.201-.309.31-.309.047 0 .085-.035.085-.078 0-.052 3.94-.078 11.663-.078l11.709.117zm18.629 20.539c.061.062.112.15.112.196s.036.084.079.084.079.071.079.157.035.157.079.157.079.088.079.196.038.196.084.196c.139 0 .31.213.31.387 0 .089.035.162.079.162s.079.071.079.157.027.157.061.157.127.123.209.274.179.275.215.275.067.07.067.156.035.157.079.157.078.088.078.196c0 .118.046.196.114.196.062 0 .158.124.213.275s.128.274.163.274.063.071.063.157.035.157.078.157.079.051.079.114.089.202.197.31.198.268.198.357.035.16.078.16.079.07.079.157.03.156.067.156.133.124.215.275.176.274.209.274.061.089.061.196.036.197.079.197.079.07.079.156.053.157.118.157.119.053.119.118.035.117.079.117.078.071.078.157.036.157.079.157.079.072.079.16.089.249.197.357.197.247.197.31.036.114.079.114.079.071.079.157.036.157.079.157.079.037.079.084.053.137.118.201.119.186.119.269c0 .149-.451.151-32.217.151-32.163 0-32.216 0-32.216-.156 0-.087.036-.157.079-.157s.079-.037.079-.082c0-.077.062-.166.296-.425.054-.06.098-.175.098-.255s.071-.195.158-.258a.41.41 0 0 0 .158-.291c0-.107.048-.179.118-.179s.118-.07.118-.157.036-.157.079-.157.079-.08.079-.178a.41.41 0 0 1 .158-.292c.087-.062.158-.177.158-.255s.053-.163.118-.187.118-.112.118-.194.036-.148.079-.148.079-.071.079-.157.035-.157.079-.157.079-.053.079-.118.034-.117.077-.117.1-.089.127-.196.081-.196.12-.196.07-.071.07-.157.036-.157.079-.157.079-.071.079-.157.035-.157.079-.157.078-.053.078-.117.054-.118.119-.118c.073 0 .118-.074.118-.196 0-.108.035-.196.079-.196s.079-.071.079-.157.035-.157.079-.157.079-.044.079-.099.088-.193.197-.31.197-.266.197-.332.035-.121.079-.121.079-.072.079-.16c0-.15.044-.225.295-.504.055-.06.099-.147.099-.193s.035-.084.079-.084.079-.071.079-.157.035-.157.078-.157.079-.073.079-.162c0-.174.171-.387.31-.387.047 0 .085-.072.085-.16s.044-.21.098-.271c.15-.169 53.957-.174 54.127-.006z" fill="#0071fe"/></svg>