<svg xmlns="http://www.w3.org/2000/svg" width="380" height="380" fill="none" xmlns:v="https://vecta.io/nano"><path fill-rule="evenodd" d="M236.502 106.139c-29.287 15.976-34.071 18.811-62.457 36.995-22.835 14.629-31.008 20.338-39.274 27.432-15.399 13.216-22.417 24.672-23.633 38.578-.428 4.898.124 8.535 1.863 12.268 2.795 6 7.455 10.862 17.657 18.425 2.335 1.731 4.395 3.337 4.578 3.57.407.519.43 1.759.045 2.476-.496.922-1.866 1.282-4.88 1.282-1.537 0-2.795.101-2.795.224s.338 1.046.75 2.049l.75 1.825 3.297.157c4.183.2 6.235.948 10.849 3.955 5.385 3.508 7.467 4.67 9.697 5.414 1.789.596 2.916 1.279 7.165 4.337 5.885 4.237 6.862 4.812 11.222 6.594 8.889 3.633 15.156 4.965 24.602 5.228 4.097.114 6.063.049 8.624-.287 6.811-.892 12.993-2.464 18.365-4.667 2.396-.983 11.418-6.161 13.899-7.978 2.886-2.112 9.823-9.19 12.371-12.621 4.469-6.02 6.223-9.254 9.103-16.784 2.989-7.816 3.537-10.48 3.803-18.508l.176-5.287 3.403-.074c1.871-.041 3.364-.173 3.317-.293l-1.394-3.419-1.307-3.201-2.257-.075-2.256-.076-.719-3.437c-2.039-9.752-4.68-16.198-9.716-23.715-6.342-9.468-13.797-16.08-24.711-21.917l-1.673-.895.214-1.322c.117-.727.21-2.214.206-3.304-.011-2.989-1.354-5.479-3.937-7.3l-.76-.536 4.343-3.401c5.131-4.019 12.021-10.745 13.847-13.517 1.708-2.593 3.203-5.657 3.94-8.077l.619-2.032 1.988-.775 1.988-.775 3.121-7.763 3.054-7.911c-.037-.081-7.726 4.032-17.087 9.138zm-4.034 13.803c-2.788 5.981-6.406 10.63-14.163 18.2l-4.901 4.784 1.145.722c1.695 1.067 3.415 3.101 3.808 4.5 1.579 5.617-5.804 15.084-15.342 19.673l-2.501 1.16c-.16.053.194.744.786 1.535 1.943 2.594 2.723 4.732 2.728 7.481.007 3.22-1.222 6.264-4.03 9.983-2.036 2.697-9.381 10.11-14.342 14.472l-3.647 3.209h19.476 19.476l6.502 16.192 6.38 16.39c-.067.109-1.835.198-3.928.198h-3.806l-5.52-13.753-5.521-13.754-3.821.073-3.821.073-2.913 7.27-3.123 7.488c-.116.119-1.569-3.18-3.23-7.333l-3.018-7.551-5.639-.003c-3.102-.002-5.639.057-5.639.13s2.439 6.206 5.421 13.63c3.686 9.18 5.316 13.537 5.095 13.622-.179.068-1.985.091-4.014.05l-3.689-.074-6.611-16.464-6.612-16.464-3.343.074-3.342.073-1.468 11.17c-.807 6.143-1.545 11.169-1.639 11.169s-5.098-5.056-11.121-11.235l-10.95-11.236h-3.915-3.915l7.246 18.043 7.245 18.042 5.497.072c5.164.067 5.486.043 5.324-.397a740.29 740.29 0 0 0-2.201-5.553c-1.115-2.797-1.965-5.149-1.888-5.226.136-.135 8.105 7.795 10.164 10.113l.998 1.124h1.932 1.932l.303-2.181.757-5.597c.25-1.878.574-3.41.72-3.405s1.28 2.523 2.521 5.595l2.255 5.584 12.839-.064 12.839-.065 3.259-8.187c1.792-4.503 3.365-8.223 3.495-8.266s1.728 3.641 3.552 8.188l3.315 8.265 15.728.069 15.592-.15c-.074-.12-2.84-6.991-6.147-15.269l-6.146-15.381c-.107-.262 2.346-.331 11.743-.331h11.879l-.168 4.032c-.46 11.075-3.756 21.639-9.528 30.533l-1.587 2.445h-30.01-30.009l-2.035 1.331c-1.119.731-3.021 1.745-4.227 2.252-12.286 5.161-26.089 2.22-39.279-8.371-3.244-2.604-9.733-9.22-11.974-12.209-4.974-6.632-7.115-13.851-6.373-21.491.994-10.244 4.515-18.505 11.816-27.732 2.964-3.745 10.21-10.827 14.89-14.552 11.24-8.948 27.954-19.433 50.95-31.964 7.469-4.07 30.805-15.729 31.499-15.737.423-.005.422.057-.011.986zm-5.278 39.503c4.663 2.513 7.945 4.898 11.948 8.682 5.423 5.128 9.875 11.113 13.064 17.567 2.445 4.948 4 9.842 5.566 17.521l.175.859h-35.448c-19.904 0-35.447-.1-35.447-.229s2.179-1.603 4.843-3.281 5.907-3.805 7.208-4.727c12.399-8.787 16.303-18.68 10.09-25.564l-1.187-1.315 2.769-1.44c5.252-2.733 9.302-5.915 11.344-8.914.489-.719.929-1.311.977-1.314s1.891.966 4.098 2.155zm17.973 90.598c0 .128-1.616 1.904-3.59 3.945-5.868 6.068-10.161 9.254-17.146 12.723-19.569 9.719-42.695 8.259-60.838-3.841-1.855-1.236-2.024-1.415-1.46-1.534 3.052-.647 6.923-1.703 9.127-2.491 3.703-1.324 10.306-4.655 13.935-7.028l3.051-1.996 28.461-.006 28.46.228z" fill="#0071fe"/></svg>