<svg xmlns="http://www.w3.org/2000/svg" width="380" height="380" fill="none" fill-rule="evenodd" xmlns:v="https://vecta.io/nano"><path d="M165.567 164.737c2.761-.367 7.16-.088 9.245.661.968.347 1.702.615 2.533 1.095 2.493 1.439 5.855 4.78 18.982 17.859m-7.157 16.431l-4.938-.015-2.172-.006 7.11.021zm-27.858-1.658l-.118-.062-.784-.408.902.47zm-32.537 14.259c-6.356-3.489-7.599-9.637-2.422-11.985 1.118-.507 1.713-.539 10.143-.545l8.955-.005-.151 5.697-7.024.066c-6.766.063-7.041.086-7.484.621-1.083 1.306.951 2.745 8.238 5.831 6.635 2.81 9.431 6.568 9.445 12.695.028 12.903-17.352 17.288-23.389 5.901-3.036-5.727-1.147-13.34 4.067-16.396.693-.405 1.06-.62 1.063-.84.003-.247-.459-.5-1.441-1.04zm77.421 1.095c.264-.264 3.962-1.533 5.372-1.843 3.939-.866 9.158-.328 12.123 1.252 4.946 2.636 5.645 9.06 1.289 11.855-1.281.822-1.798.971-9.141 2.644-2.593.59-3.343 1.07-3.343 2.137 0 2.512 5.652 3.112 11.156 1.184l2.382-.82c.612-.193 2.533 4.361 2.042 4.843-.645.634-4.367 1.936-6.69 2.341-8.559 1.493-15.479-1.532-15.974-6.982-.415-4.577 1.887-6.584 9.306-8.112 4.336-.893 5.246-1.224 5.73-2.08 1.509-2.672-4.152-3.923-9.909-2.19-1.295.39-2.378.675-2.406.634-.256-.374-2.014-4.786-1.937-4.863zM69.447 230.924c-3.428-7.215 1.013-15.937 8.97-17.618 2.216-.469 5.213-.037 8.217 1.184.345.14.464.013.53-.569l.086-.75h6.097l.07 12.986c.086 15.949-.02 16.598-3.264 19.999-7.105 7.446-20.148 3.442-21.479-6.594l-.179-1.348h3.215c3.059 0 3.215.026 3.215.541 0 .297.23.991.511 1.542 2.8 5.487 11.251 4.068 11.634-1.954l.109-1.706-1.687.687c-6.077 2.478-13.172-.352-16.044-6.4zm87.914 13.385h-6.096v-31.27h6.096v.795c0 .366-.008.592.1.685.177.152.663-.056 2-.603 4.359-1.781 10.365-.343 13.507 3.234 5.551 6.321 3.792 15.995-3.579 19.682-3.722 1.862-7.009 1.842-11.564-.07-.429-.18-.464.092-.464 3.676v3.871zm24.78-9.938c-6.867-6.991-2.88-19.341 6.796-21.048 8.917-1.574 16.675 6.761 14.405 15.474-2.472 9.491-14.3 12.6-21.201 5.574zm55.802 9.938h-6.097v-31.228l5.964.09.084.729c.038.329.05.536.158.622.184.147.647-.057 1.991-.606 4.402-1.799 10.264-.373 13.59 3.308 5.529 6.118 3.702 15.924-3.653 19.603-3.732 1.867-7.015 1.849-11.573-.065-.43-.18-.464.092-.464 3.676v3.871zm21.428-16.625c-1.094-6.378 3.26-12.809 9.655-14.26 2.07-.47 4.761-.297 6.772.436 1.633.596 2.173.809 2.35.64.099-.094.085-.306.085-.635v-.826h6.097l.017 9.209c.021 11.514.2 14.357 1.011 16.032 3.899 8.052 16.534 8.005 20.152-.075.312-.695.483-1.05.385-1.155-.107-.114-.53.067-1.435.43-8.761 3.514-18.536-4.775-16.696-14.158 1.615-8.24 9.757-12.216 18.083-8.832.345.14.464.013.531-.569l.085-.75 6.259-.149-.09 12.265c-.073 10.162-.066 12.362-.797 14.282-.231.606-.535 1.184-.94 1.976-5.784 11.335-22.839 12.241-29.964 1.591-1.218-1.82-2.432-4.693-2.432-5.753 0-.759-.355-.768-2.119-.056-7.347 2.967-15.654-1.743-17.009-9.643zM97.663 231.68c-3.696-6.79-.32-15.267 7.095-17.816 9.191-3.16 18.602 5.513 16.158 14.891-2.889 11.091-17.789 12.965-23.253 2.925zm-11.189-3.419c1.505-3.074.19-6.692-2.983-8.208-3.925-1.874-8.513.78-8.787 5.083-.446 7.005 8.684 9.429 11.77 3.125zm22.247 3.659c6.55 0 8.624-8.727 2.783-11.718-2.463-1.261-5.338-.728-7.342 1.361-3.73 3.887-.882 10.357 4.559 10.357zm31.764-1.833c2.837-2.836 2.257-7.575-1.186-9.703-4.139-2.559-9.335.436-9.363 5.396-.031 5.449 6.671 8.185 10.549 4.307zm26.107 1.078c4.515-2.249 4.484-8.685-.054-11.018-4.154-2.136-8.98.876-8.992 5.612-.012 4.593 4.848 7.498 9.046 5.406zm24.566.689c7.05 0 8.663-9.703 2.003-12.052-4.2-1.482-8.666 2.103-8.143 6.535.389 3.294 2.863 5.517 6.14 5.517zm56.034-.698c4.741-2.362 4.445-8.967-.502-11.206-4.023-1.82-8.551 1.251-8.563 5.809-.011 4.587 4.864 7.49 9.065 5.397zm28.818-.948c3.04-2.801 2.55-7.633-.995-9.824-4.148-2.565-9.347.358-9.366 5.263a6.12 6.12 0 0 0 10.361 4.561zm29.69-1.913c1.594-3.422-.019-7.232-3.595-8.493-5.923-2.089-10.825 5.129-6.731 9.911 2.936 3.43 8.419 2.677 10.326-1.418z" fill="#000"/><path d="M184.23 168.518c-8.975-10.671-2.927-27.185 10.868-29.674 8.705-1.57 17.545 3.85 20.519 12.582l.723 2.12.151 47.1-15.406-15.202-16.855-16.926zm48.942-29.392l1.988-.405c.291-.067 1.603-.075 2.915-.017 13.302.586 21.33 14.269 15.471 26.369-1.088 2.248-1.124 2.286-17.759 18.948l-16.67 16.695.138-47.435.747-2.12c2.111-5.996 7.517-10.936 13.17-12.035zm-3.445 54.415c26.929-27.004 28.421-28.252 34.659-28.988 20.025-2.361 28.479 25.535 10.384 34.263-.786.379-1.404.687-2.044.938-2.883 1.13-6.224 1.095-27.415 1.095H222.44l7.287-7.308zm-69.317 5.113c-14.62-7.463-11.925-29.698 4.086-33.72 2.527-.635 7.933-.392 10.316.464 3.87 1.389 4.013 1.515 21.515 18.954l16.567 16.507-23.724-.076c-21.136-.068-24.118.02-26.607-1.043-.648-.276-1.262-.63-2.153-1.086z" fill="#e53f25"/><path d="M195.097 138.844c-13.794 2.489-19.842 19.003-10.867 29.674.796.948 8.381 8.564 16.855 16.925l15.406 15.203-.152-47.1-.722-2.12c-2.974-8.732-11.814-14.152-20.52-12.582zm40.062-.123a83.77 83.77 0 0 1-1.988.405c-5.652 1.099-11.059 6.039-13.169 12.035l-.747 2.12-.138 47.435 16.67-16.695c16.635-16.662 16.671-16.7 17.759-18.948 5.859-12.1-2.169-25.783-15.471-26.369-1.312-.058-2.624-.05-2.916.017zm29.227 25.832c-6.238.736-7.73 1.984-34.659 28.988l-7.287 7.308h22.871c25.898 0 25.135.052 29.459-2.033 18.095-8.728 9.641-36.624-10.384-34.263zm-99.89.381c-16.011 4.022-18.706 26.257-4.086 33.72 4.319 2.206 2.128 2.043 28.76 2.129l23.724.076-16.567-16.507c-17.502-17.439-17.645-17.565-21.515-18.954-2.383-.856-7.789-1.099-10.316-.464zm-38.143 36.465c-5.177 2.347-3.934 8.496 2.422 11.985 1.853 1.017 1.853 1.017.378 1.88-5.214 3.056-7.103 10.669-4.067 16.396 6.037 11.387 23.417 7.002 23.389-5.901-.014-6.127-2.81-9.885-9.445-12.695-7.287-3.086-9.321-4.525-8.238-5.831.443-.535.718-.558 7.484-.621l7.024-.066.151-5.697-8.955.005c-8.43.006-9.025.038-10.143.545zm85.215 11.237c-1.41.31-5.108 1.579-5.372 1.843-.077.076 1.681 4.489 1.937 4.863.028.041 1.111-.244 2.406-.634 5.757-1.733 11.418-.482 9.909 2.19-.484.856-1.394 1.187-5.73 2.08-7.419 1.528-9.721 3.535-9.306 8.112.495 5.45 7.415 8.475 15.974 6.982 2.323-.405 6.045-1.707 6.69-2.341.491-.482-1.43-5.036-2.042-4.843a172.3 172.3 0 0 0-2.382.82c-5.504 1.928-11.156 1.328-11.156-1.184 0-1.067.75-1.547 3.343-2.137 7.343-1.673 7.86-1.822 9.141-2.644 4.356-2.795 3.657-9.219-1.289-11.855-2.965-1.58-8.184-2.119-12.123-1.252zm-133.151.67c-7.957 1.681-12.398 10.403-8.97 17.618 2.873 6.048 9.967 8.878 16.044 6.4l1.687-.687-.109 1.706c-.383 6.022-8.835 7.441-11.634 1.954-.281-.551-.511-1.245-.511-1.542 0-.515-.156-.541-3.215-.541h-3.215l.179 1.348c1.332 10.036 14.375 14.04 21.48 6.594 3.244-3.401 3.35-4.05 3.264-20l-.07-12.985H87.25l-.086.75c-.066.582-.185.709-.53.569-3.004-1.221-6.001-1.653-8.217-1.184zm72.848 31.003h6.096v-3.871c0-3.584.035-3.856.464-3.676 4.555 1.912 7.842 1.932 11.564.07 7.371-3.687 9.13-13.362 3.579-19.682-3.142-3.577-9.148-5.015-13.507-3.234-2.154.88-2.1.882-2.1-.082v-.795h-6.096v31.27zm37.672-30.986c-9.676 1.707-13.663 14.056-6.796 21.048 6.902 7.026 18.729 3.917 21.201-5.574 2.27-8.713-5.488-17.048-14.405-15.474zm42.909 30.986h6.097v-3.871c0-3.584.034-3.856.464-3.676 4.558 1.914 7.841 1.932 11.573.065 7.355-3.679 9.182-13.485 3.653-19.604-3.326-3.68-9.188-5.106-13.59-3.307-2.133.872-2.047.873-2.149-.016l-.084-.729-5.964-.09v31.228zm37.18-30.885c-6.395 1.451-10.749 7.882-9.655 14.26 1.355 7.9 9.662 12.61 17.009 9.643 1.764-.712 2.119-.703 2.119.056 0 1.06 1.214 3.933 2.432 5.753 7.125 10.65 24.18 9.744 29.964-1.591 1.684-3.3 1.64-2.887 1.737-16.258l.09-12.265-6.259.149-.085.75c-.067.582-.186.709-.531.569-8.326-3.384-16.468.592-18.083 8.832-1.84 9.383 7.935 17.672 16.696 14.158 1.739-.697 1.699-.725 1.05.725-3.618 8.08-16.253 8.126-20.152.075-.811-1.675-.99-4.518-1.011-16.032l-.017-9.209h-6.097v.826c0 .922.106.922-2.435-.005-2.011-.733-4.702-.906-6.772-.436zm-164.268.44c-7.415 2.549-10.791 11.026-7.095 17.816 5.464 10.04 20.364 8.166 23.253-2.925 2.444-9.378-6.967-18.051-16.158-14.891zm-21.267 6.189c3.173 1.516 4.487 5.134 2.983 8.208-3.085 6.304-12.216 3.88-11.77-3.125.274-4.303 4.862-6.957 8.787-5.083zm28.013.149c5.841 2.991 3.767 11.718-2.783 11.718-5.441 0-8.289-6.47-4.559-10.357 2.004-2.089 4.879-2.622 7.342-1.361zm27.795.182c3.443 2.128 4.023 6.867 1.186 9.703-3.878 3.878-10.58 1.142-10.549-4.307.028-4.96 5.224-7.955 9.363-5.396zm27.239-.237c4.538 2.333 4.569 8.769.054 11.018-4.198 2.091-9.058-.813-9.046-5.406.012-4.736 4.838-7.748 8.992-5.612zm26.623-.345c6.66 2.349 5.047 12.052-2.003 12.052-3.277 0-5.751-2.223-6.14-5.517-.523-4.432 3.943-8.017 8.143-6.535zm53.529.148c4.947 2.239 5.243 8.844.502 11.206-4.201 2.093-9.076-.81-9.065-5.397.012-4.558 4.54-7.629 8.563-5.809zm28.325.434c3.545 2.191 4.035 7.023.995 9.824a6.12 6.12 0 0 1-10.361-4.561c.019-4.906 5.218-7.828 9.366-5.263zm27.09-.582c3.576 1.261 5.189 5.071 3.595 8.493-1.907 4.095-7.39 4.848-10.326 1.418-4.094-4.782.808-12.001 6.731-9.911z" fill="#0071fe"/></svg>