<svg xmlns="http://www.w3.org/2000/svg" width="380" height="380" fill="#e61d2a" xmlns:v="https://vecta.io/nano"><path d="M160.8 219.838c-9.259-5.964-21.825-7.011-42.091-1.388-21.605 5.077-28.808 8.331-38.268 1.798-3.634-3.21-4.937-8.377-3.964-15.821 2.257-12.134 8.355-23.811 19.188-36.764 6.046-6.738 11.655-12.521 19.061-14.843 5.676-1.456 5.146 3.005 4.459 3.643-.725 0-1.943.114-2.883.728-.764.592-2.86 2.504-2.973 5.077-.162 3.938 3.913 3.118 5.671.956 1.895-2.437 4.695-7.102 2.492-11.451-.923-1.548-2.518-2.617-4.499-2.982-6.781-.387-13.097 2.846-18.926 6.42-12.748 8.855-22.945 21.125-28.715 34.557-3.327 8.104-6.335 19.712-1.826 29.16 3.489 6.556 10.731 10.038 19.372 9.31 6.06-.637 13.389-2.595 18.317-3.778s30.158-9.857 38.448 5.237c0 0 2.756-5.351 9.645-5.465 5.664-.523 13.834 1.639 19.784 6.009-1.982-2.981-7.602-7.374-12.291-10.403zm-39.518-50.65c-4.719-3.096-14.203 2.823-21.799 12.975-6.946 9.107-9.946 19.691-6.682 24.586 4.856 5.759 13.87-2.618 17.704-7.102l.494-.524c2.607-2.8 4.621-6.17 6.571-9.402l1.877-3.097c1.107-.204 2.441-.523 3.944-.955-.021.068-5.75 9.697-5.166 14.477.182 1.458.043 6.785 5.244 8.401 6.931 1.162 12.466-4.212 17.349-8.992l1.303-1.251-.275 1.113c-2.029 7.058.706 8.538 2.418 9.085 5.171 1.503 11.349-6.01 11.369-6.01-.161 2.367-.629 4.324 1.866 5.895 2.354.843 4.737-.442 6.548-1.648 6.525-4.599 11.781-11.796 16.026-18.017h-2.708c-.032 0-6.682 9.639-11 11.734-.007 0-.793.404-1.246.085-.56-.479-.339-1.473.007-2.177.022-.046 16.673-28.927 16.673-28.927h-7.862l-.929 1.481c-.053-.046-.179-.285-.266-.399-4.871-6.738-15.902 3.626-24.206 15.645-3.198 4.622-7.269 9.826-11.49 13.582 0 0-6.253 5.732-8.925 1.613-.976-1.73-.676-4.26-.125-5.921 3.111-8.856 8.471-16.892 14.571-21.742 1.722-1.342 3.594-1.73 4.522-1.161.885.525 1.028 1.821.468 2.709-1.42-.045-2.558.387-3.484 1.343-1.823 1.912-2.456 3.756-1.876 5.487 2.815 4.006 8.43-3.916 8.158-8.742-.097-1.731-1.02-3.369-2.398-4.167-2.053-1.228-5.185-.91-7.212.069-2.714 1.024-7.01 4.598-9.517 7.376-3.157 3.483-8.57 7.353-10.263 6.919.554-1.48 5.127-10.836.317-14.341zm37.905 13.841c1.529-2.117 5.981-7.786 7.066-8.742 3.65-3.211 5.109-1.798 5.235-.797-3.406 6.101-7.427 13.09-11.206 19.373.007-.022-1.183 1.798-1.183 1.798-1.67 2.549-3.351 4.735-6.093 6.26-.391.114-1.035.16-1.464-.16-.516-.341-.72-.91-.662-1.503.164-1.957 2.157-7.943 8.307-16.229zm-42.771 3.664s-.069.206-.103.273c-.008 0-3.428 5.577-3.428 5.577-2.063 2.755-4.64 6.216-7.86 7.877-.955.319-2.274.524-2.947-.318-1.425-1.707-.691-4.075-.094-5.987l.212-.683c1.711-4.643 4.426-8.742 7.069-12.543a.34.34 0 0 1 .134-.046c.006.023.017.023.022.069 1.658 3.186 4.768 4.665 7.094 5.349.014 0 .029.023.029.069 0 .068-.038.159-.128.363zm3.239-6.578c-.015.046-1.523 3.506-1.523 3.506-.218.181-.563.091-.958 0l-.677-.115c-2.125-.66-3.728-2.071-4.222-3.756-.682-3.278 2.118-5.85 3.352-6.783 1.184-.82 3.024-1.253 4.093-.41.659.774.909 1.775.909 2.869 0 1.479-.456 3.141-.974 4.689zm99.394 10.562c-.759-1.638-2.558-2.686-4.476-2.572-6.228.569-12.32 5.691-15.519 13.043-1.678 3.78-2.594 6.898-3.195 11.861 1.937-2.231 5.887-5.895 10.37-7.899 0 0 .61-4.758 3.72-8.992 1.177-1.753 3.533-4.576 6.178-3.825 2.311.775 1.498 7.171-1.573 13.362-2.272 4.553-5.75 9.108-9.269 12.248-3.111 2.641-7.713 5.828-11.74 3.37-2.536-1.502-3.83-4.644-3.557-8.697 1.212-11.495 6.445-21.284 13.934-32.438 7.721-10.358 16.233-20.989 27.699-26.658 2.339-1.184 4.505-1.457 6.377-.728 0 0-10.764 5.918-15.894 16.868-1.306 2.778-3.121 6.533-1.293 9.857.955 1.73 2.652 1.867 4.017 1.775 6.289-1.457 10.353-7.33 13.673-12.702 1.924-4.074 3.635-8.126 3.635-12.634 0-.546-.028-1.274-.075-1.821 3.005-1.593 9.167 1.229 9.167 1.229 4.814 1.594 15.066 9.448 18.525 10.95 1.686-1.957 4.459-4.916 6.019-6.396l-2.259-1.389c-3.618-2.208-7.441-4.303-11.205-6.374-8.548-4.666-15.505-3.028-19.046-1.753l-2.663.933c-2.628-2.868-6.938-2.595-10.113-1.821-11.42 3.278-22.023 11.268-33.391 25.132-8.357 10.859-13.541 20.238-16.304 29.503-2.13 6.237-2.777 15.411 2.421 20.852 4.42 4.62 10.28 3.619 14.419 1.958 8.967-4.417 17.026-13.933 21.041-24.883.969-3.254 2.045-7.853.377-11.359zm20.618-34.305c-1.187 13.613-11.769 21.604-14.387 22.24-1.587.319-4.294-.387-1.877-6.1 3.559-7.695 9.636-14.228 16.156-17.574.159.569.155.932.108 1.434zm62.77 1.729c-5.692 3.233-11.592 5.327-18.735 4.599-1.979 2.231-3.907 4.53-5.683 6.897 10.025 2.55 20.653-3.118 26.58-8.513 6.27-5.441 9.486-12.292 9.486-12.292s-4.701 5.372-11.648 9.309zm-111.783 18.18l4.213-6.843H187.4l-4.211 6.843h7.465zm93.018 44.191c-.803.546-1.93.126-1.509-1.125 1.051-3.188 5.227-9.682 5.227-9.682l11.632-20.631h-7.968c-.378.622-1.188 2.051-1.188 2.051-.369-.614-1.471-1.98-1.925-2.275-1.947-1.23-4.803-.648-6.773.467-8.566 5.009-14.816 14.905-19.745 22.622 0 0-5.189 8.579-8.069 9.217-2.249.182-2.017-2.847-1.919-3.552.869-5.1 2.888-9.949 4.922-14.342a110.24 110.24 0 0 0 13.151-10.745c9.312-8.902 17.162-18.986 18.31-21.24 0 0-1.242.251-2.709.296-7.164 9.994-21.824 24.518-26.269 26.68 1.969-4.736 14.69-27.34 25.516-38.153l1.703-1.64c2.634-2.572 5.364-5.213 7.491-5.645.224-.023.514 0 .763.524.095 2.003-.65 3.483-1.506 5.167l-1.199 2.459s1.698-.319 2.814-.684c1.294-2.434 2.727-5.167 2.198-8.422-.176-1.047-.934-1.844-1.925-2.026-3.229-.614-6.749 1.775-9.58 3.711l-.115.068c-14.557 11.405-26.85 27.841-37.597 50.287-.779.591-3.789 1.297-4.3.955 1.061-2.185 2.397-5.122 3.066-8.309.116-.911.223-1.844.223-2.754 0-1.959-.47-3.803-2.225-5.077-2.058-1.025-4.602-.546-6.317.227-7.682 3.187-13.424 11.064-17.567 17.551-2.228 4.122-4.45 8.536-5.065 13.591-.434 3.96.448 6.51 2.7 7.785 2.316 1.183 5.231-.047 6.375-.638 7.783-4.097 13.221-12.315 17.508-19.828.17-.022 2.511-.09 4.281-.546.023 0 .033 0 .073.024-.102.34-1.017 3.073-1.017 3.073-2.716 7.967-3.973 13.385-1.407 16.594 3.667 4.531 9.738-.158 14.677-6.351-1.06 7.421 2.786 8.582 5.718 8.014 3.367-.911 7.12-4.508 8.862-6.352-.559 2.163-.407 6.033 2.656 6.42 2.1.388 3.672-.754 5.49-1.734 6.523-3.551 14.33-15.386 16.357-18.807h-2.658c-2.881 4.355-6.548 10.065-11.161 12.775zm-58.546-.793c-.413-.614-.55-1.286-.564-2.013-.079-4.464 4.723-12.457 8.113-16.812 1.428 3.11 4.644 5.11 6.586 5.952-2.412 5.373-10.683 16.88-14.135 12.873zm15.497-15.275c-.23.161-4.287-1.206-5.071-4.962-.665-3.233 1.562-5.76 3.717-7.034.924-.729 2.317-.978 3.339-.616.948.638 1.205 1.778 1.205 3.005 0 .753-.1 1.526-.188 2.231l-.019.16c-.676 2.526-1.71 5.008-2.983 7.216zm32.534 13.841c-.003 0-.769.683-.769.683-1.094.978-2.22 2.026-3.58 1.502-.375-.137-.639-.637-.703-1.025-.062-2.8 1.199-5.395 2.422-7.921l.314-.661c3.517-5.873 7.606-12.793 13.61-17.596 1.012-.73 2.11-1.343 3.269-.865.267.25.577.683.577 1.115 0 .137-.122.501-.192.615-1.677 2.71-3.274 5.555-4.827 8.286-3.035 5.396-6.184 10.972-10.121 15.867z"/></svg>