<svg xmlns="http://www.w3.org/2000/svg" width="380" height="380" fill="none" xmlns:v="https://vecta.io/nano"><path fill-rule="evenodd" d="M230.758 148.357c-1.184.871-1.89 2.794-1.974 5.376l-.133 4.02 16.06.512c12.771.408 16.257.827 17.022 2.048.529.845.968 9.255.977 18.69.02 21.745.346 21.25-14.021 21.25-15.519 0-15.912-1.77-3.961-17.833l9.215-12.634c.597-.997-2.136-1.28-12.394-1.28h-13.16l-5.547 7.425c-9.837 13.166-9.925 13.967-2.582 23.769 8.112 10.829 9.34 11.318 28.226 11.247 17.212-.066 22.577-1.08 27.417-5.179l3.097-2.625v-24.417-24.418l-3.125-2.241C270.29 148.064 264.442 147 248.01 147c-11.185 0-15.915.372-17.252 1.357zM101 173.507c0 4.14.35 5.093 2.034 5.537 1.967.518 2.035 1.397 2.035 26.745V232h10.154 10.154l.271-26.37.272-26.371h12.499c12.709 0 14.391.5 14.44 4.29.008.67-4.104 6.78-9.139 13.576s-9.154 12.816-9.154 13.375c0 .62 4.942 1.018 12.635 1.018h12.635l7.282-9.948c6.107-8.34 7.191-10.416 6.707-12.848-.965-4.861-9.969-16.086-15.051-18.767-2.172-1.145-8.514-1.449-30.26-1.449H101v5.001zm80.809 14.989c-8.126 10.995-15.034 20.673-15.352 21.506-.491 1.289 1.341 1.516 12.234 1.516h12.813l15.056-20.226 15.837-21.506c.609-.998-2.141-1.28-12.517-1.28h-13.296l-14.775 19.99z" fill="#ff0f00"/></svg>