<svg xmlns="http://www.w3.org/2000/svg" width="380" height="380" fill="none" xmlns:v="https://vecta.io/nano"><path fill-rule="evenodd" d="M327.943 172.118c-2.559.344-4.647 1.319-6.48 3.025-2.487 2.314-3.49 5.591-2.764 9.031.752 3.564 3.452 5.807 9.208 7.647 6.439 2.059 8.015 2.838 8.762 4.327.788 1.571.511 3.24-.755 4.541-.931.957-2.259 1.393-4.649 1.525-4.166.231-6.966-1.239-8.552-4.489-.311-.638-.663-1.133-.781-1.101s-1.272.668-2.562 1.412l-2.345 1.353.335.862c.949 2.436 3.256 4.884 5.772 6.124 2.402 1.184 4.437 1.625 7.503 1.625 4.323 0 7.366-1.072 9.698-3.416 1.979-1.989 2.788-4.265 2.652-7.458-.099-2.357-.921-4.044-2.822-5.795-1.574-1.45-2.979-2.108-8.478-3.97-3.872-1.312-5.654-2.164-6.407-3.063-1.432-1.711-.999-4.266.949-5.599 1.042-.713 2.22-.951 4.199-.85 2.713.138 4.674 1.29 5.981 3.515.346.589.702 1.074.792 1.076.328.008 4.765-2.64 4.767-2.845.006-.504-1.792-2.906-3.081-4.118-2.76-2.596-6.982-3.892-10.942-3.359zm-290.942.511c-.06.061 1.986 7.871 4.547 17.356l4.656 17.246h3.639 3.639l3.595-12.446 3.684-12.702c.049-.14 1.742 5.486 3.762 12.502l3.673 12.757 3.655-.056 3.656-.055 4.653-17.193 4.57-17.35c-.046-.087-1.44-.158-3.098-.158h-3.015l-.217.685c-.119.377-1.696 6.192-3.504 12.921L71.47 198.63c-.077.143-1.844-5.647-3.928-12.868l-3.789-13.127-2.871-.059c-2.821-.057-2.874-.05-3.05.422-.099.265-1.816 6.149-3.818 13.077l-3.753 12.482c-.063-.063-1.682-5.921-3.598-13.018l-3.484-12.904-3.034-.058c-1.669-.032-3.083-.009-3.143.052zm52.012.036c-.08.08-.146 7.914-.146 17.409v17.262h3.044 3.044l-.054-17.35-.054-17.351-2.845-.058c-1.565-.032-2.911.007-2.991.088zm12.592-.001c-.08.081-.145 7.915-.145 17.41v17.262h10.073 10.074v-2.742-2.743h-7.134-7.134l-.054-14.608-.054-14.608-2.74-.059c-1.507-.032-2.806.008-2.886.088zm24.147-.015c-.087.089-.158 7.93-.158 17.425v17.262l8.028-.003c8.609-.004 9.584-.095 12.112-1.121 2.03-.824 3.529-1.821 5.172-3.438 3.601-3.546 5.231-7.601 5.204-12.947-.026-5.178-1.61-8.978-5.234-12.551-1.614-1.591-3.118-2.59-5.142-3.411-2.612-1.061-3.557-1.161-11.955-1.273-4.328-.058-7.941-.032-8.027.057zm35.677.003c-.086.087-.157 7.927-.157 17.422v17.262h8.455c9.208 0 9.853-.066 11.985-1.22.583-.315 1.639-1.142 2.348-1.839 2.136-2.098 2.948-4.294 2.778-7.515-.145-2.777-1.336-4.999-3.554-6.636l-1.057-.78.947-.972c2.502-2.571 3.11-6.564 1.528-10.038-.702-1.541-2.557-3.474-4.155-4.33-2.38-1.275-2.701-1.316-11.195-1.419-4.271-.052-7.836-.023-7.923.065zm30.835.016c-.078.079-.141 7.911-.141 17.406v17.262h10.703 10.703v-2.742-2.743h-7.765-7.765v-4.64-4.641h7.03 7.031v-2.743-2.742h-7.031-7.03v-4.43-4.43h7.666 7.666l-.058-2.795-.059-2.795-10.404-.055c-5.722-.03-10.468.01-10.546.088zm26.302 17.246v17.422h2.938 2.938v-6.223-6.223h3.311 3.312l3.643 6.223 3.643 6.223h3.224c1.774 0 3.224-.035 3.224-.078s-1.751-3.044-3.891-6.671l-3.83-6.64c.033-.026.559-.315 1.168-.643 2.219-1.194 4.243-3.665 5.095-6.219.62-1.855.622-4.614.007-6.571-.807-2.566-3.039-5.261-5.449-6.579-2.143-1.173-2.828-1.254-11.411-1.353l-7.922-.091v17.423zm30.588-17.261c-.087.087-.157 7.926-.157 17.421v17.262h2.938 2.938v-6.228-6.228l3.409.058 3.409.058 3.569 6.16 3.569 6.161 3.33.01 3.329.009-.303-.475c-.671-1.052-7.32-12.41-7.425-12.685-.076-.198.223-.461.898-.791 1.404-.686 3.848-3.175 4.555-4.64 2.134-4.421 1.35-9.236-2.07-12.719-1.441-1.468-2.584-2.198-4.525-2.891-1.307-.467-1.65-.487-9.332-.562-4.387-.043-8.046-.006-8.132.08zm30.419.011c-.08.081-.145 7.915-.145 17.41v17.262h2.939 2.939l-.053-17.35-.054-17.351-2.74-.059c-1.507-.032-2.806.008-2.886.088zm12.379.004c-.078.079-.142 7.911-.142 17.406v17.262h10.703 10.703v-2.742-2.743h-7.66-7.66v-4.64-4.641h6.926 6.925v-2.743-2.742h-6.925-6.926v-4.43-4.43h7.561 7.562l-.059-2.795-.058-2.795-10.404-.055c-5.723-.03-10.468.01-10.546.088zm-114.877 5.898c.849.43 1.783 1.297 2.135 1.98 1.112 2.162.103 5.144-2.078 6.14-.744.339-1.43.39-5.314.394l-4.46.005v-4.43-4.43h4.523c3.745 0 4.638.059 5.194.341zm57.047-.126c.983.274 2.601 1.711 3.154 2.802 1.389 2.736.199 6.441-2.498 7.776-.938.464-1.271.497-5.666.563l-4.67.071v-5.714-5.713l4.46.002c2.453 0 4.802.096 5.22.213zm31.035.224c4.159 1.892 4.403 7.917.414 10.192l-1.149.655-4.774.07-4.775.07v-5.713-5.713l4.67.005c4.242.004 4.755.044 5.614.434zm-122.668.059c3.611.971 6.663 4.19 7.547 7.96.403 1.721.407 4.975.007 6.68-.69 2.941-2.873 5.878-5.357 7.209-1.954 1.047-3.477 1.272-8.651 1.276l-4.564.003v-11.707-11.708l4.984.003c3.492.001 5.299.087 6.034.284zm36.315 14.377c1.503.935 2.259 2.457 2.156 4.345-.091 1.664-.74 2.815-2.098 3.719l-.874.582-5.315.063-5.315.063v-4.773-4.773l5.211.069 5.212.069 1.023.636z" fill="url(#A)"/><defs><linearGradient id="A" x1="38.616" y1="185.636" x2="347.315" y2="193.618" gradientUnits="userSpaceOnUse"><stop stop-color="#be11a5"/></linearGradient></defs></svg>