<svg xmlns="http://www.w3.org/2000/svg" xmlns:xlink="http://www.w3.org/1999/xlink" width="380" height="380" fill="none" xmlns:v="https://vecta.io/nano"><use xlink:href="#B" fill="#fff"/><use xlink:href="#C" fill-rule="evenodd" fill="#ec1b23"/><use xlink:href="#B" fill="#fff"/><use xlink:href="#C" fill-rule="evenodd" fill="#0071fe"/><defs ><path id="B" d="M83.803 190.002c0-33.388 49.521-58.251 106.685-58.251s106.71 24.863 106.71 58.251c0 33.399-49.546 58.201-106.71 58.201S83.803 223.401 83.803 190.002z"/><path id="C" d="M190.487 129C250.937 129 300 156.334 300 190.003 300 223.677 250.937 251 190.487 251 130.063 251 81 223.677 81 190.003 81 156.334 130.063 129 190.487 129zm0 5.502c-57.367 0-103.959 24.914-103.959 55.501 0 30.599 46.592 55.454 103.959 55.454s103.96-24.855 103.96-55.454c0-30.587-46.592-55.501-103.96-55.501zm-19.233 61.357h-21.551c.255 5.304 3.236 7.762 7.693 7.762 3.312 0 5.579-1.865 6.165-3.742h7.057c-1.809 6.417-7.057 9.387-13.527 9.387-9.171 0-14.877-6.31-14.877-15.323 0-8.73 6.037-15.378 14.877-15.378 9.935 0 14.724 8.337 14.163 17.294zm-14.367-11.797c-4.483 0-6.776 2.983-7.133 6.799h13.986c-.535-4.073-2.242-6.799-6.853-6.799zm107.679 11.797h-21.551c.229 5.304 3.235 7.762 7.667 7.762 3.337 0 5.605-1.865 6.19-3.742h7.057c-1.809 6.417-7.057 9.387-13.527 9.387-9.196 0-14.877-6.31-14.877-15.323 0-8.73 6.038-15.378 14.877-15.378 9.935 0 14.724 8.337 14.164 17.294zm-14.393-11.797c-4.458 0-6.751 2.983-7.133 6.799h14.011c-.535-4.073-2.242-6.799-6.878-6.799zm-145.66 24.414h7.998v-17.35h17.272v17.35h7.999v-40.297h-7.999v16.5h-17.272v-16.5h-7.998v40.297zm71.148 0h7.541v-15.753c0-5.915 2.089-8.337 6.419-8.337 3.719 0 5.401 2.366 5.401 7.153v16.937h7.514v-17.913c0-7.209-2.139-11.998-10.673-11.998-3.363 0-6.878 1.579-8.891 4.845h-.178v-4.056h-7.133v29.122zm33.295 0h7.515v-15.771l11.106 15.771h9.349l-12.227-16.341 10.826-12.781h-8.967l-10.087 12.557v-23.732h-7.515v40.297zm60.017 0h7.514v-40.297h-7.514v40.297z"/></defs></svg>