<svg xmlns="http://www.w3.org/2000/svg" width="380" height="380" fill="none" xmlns:v="https://vecta.io/nano"><path fill-rule="evenodd" d="M83.004 152.979c1.14 2.974 15.14 24.832 15.772 24.624.921-.304 16.727-22.08 17.513-24.13.451-1.173-2.92-1.473-16.547-1.473-9.413 0-16.945.441-16.738.979zm43.426 8.882l-17.01 27.585-10.918 17.724.325 10.415.324 10.415 20.279-32.359 20.278-32.359 7.498-.007 7.497-.006 2.924-4.99c1.607-2.745 2.923-5.281 2.923-5.634s-6.307-.645-14.014-.645h-14.014l-6.092 9.861zm44.474-4.226l-3.501 5.634h6.712 6.713v6.198 6.199h-10.605-10.606l-3.466 5.634-3.467 5.635h13.982 13.982l5.723-6.424 5.723-6.422v-11.045V152h-8.845-8.843l-3.502 5.635zm34.745 12.114c.041 20.204-.627 19.94 9.15 3.613l6.023-10.055 12.057-.019 12.056-.019 3.434-4.992c1.888-2.746 3.434-5.282 3.434-5.635S241.41 152 228.708 152h-23.095l.036 17.749zm56.508-12.114l-3.501 5.634h12.908 12.91v6.198 6.199h-16.812-16.812l-4.03 6.444c-3.908 6.25-4.03 6.777-4.03 17.468V210.6h23.084 23.083l3.647-7.607 3.648-7.606.374-21.694L297 152h-15.671-15.67l-3.502 5.635zm-81.329 35.413v6.237l-22.619.304-22.621.305-3.975 5.371-3.976 5.371 31.703-.3 31.703-.299.243-11.269.245-11.27-5.351-.344-5.352-.343v6.237zm31.986 5.495l-6.882 11.494 6.731.339c3.701.186 6.943.125 7.204-.135s.329-5.585.151-11.833l-.323-11.358-6.881 11.493zm71.66-5.41v6.198h-15.209-15.209v-6.198-6.198h15.209 15.209v6.198z" fill="#0071fe"/></svg>