<svg xmlns="http://www.w3.org/2000/svg" width="380" height="380" fill="none" xmlns:v="https://vecta.io/nano"><g fill-rule="evenodd"><path d="M57.955 214.585c13.556 0 24.545-11.007 24.545-24.585s-10.989-24.585-24.545-24.585S33.409 176.422 33.409 190s10.989 24.585 24.545 24.585zm0 3.415c15.439 0 27.955-12.536 27.955-28s-12.516-28-27.955-28S30 174.536 30 190s12.516 28 27.955 28z" fill="#ec4631"/><path d="M57.955 211.171c11.673 0 21.136-9.479 21.136-21.171s-9.463-21.171-21.136-21.171S36.818 178.308 36.818 190s9.463 21.171 21.136 21.171zm0 3.414c13.556 0 24.546-11.007 24.546-24.585s-10.989-24.585-24.546-24.585S33.409 176.422 33.409 190s10.989 24.585 24.545 24.585z" fill="#fed304"/></g><path d="M75.682 190c0 9.806-7.937 17.756-17.727 17.756S40.228 199.806 40.228 190s7.937-17.756 17.727-17.756 17.727 7.95 17.727 17.756z" fill="#3e3e3f"/><path fill-rule="evenodd" d="M57.955 207.756c9.79 0 17.727-7.95 17.727-17.756s-7.937-17.756-17.727-17.756-17.727 7.95-17.727 17.756 7.937 17.756 17.727 17.756zm0 3.415c11.673 0 21.136-9.479 21.136-21.171s-9.463-21.171-21.136-21.171S36.818 178.308 36.818 190s9.463 21.171 21.136 21.171z" fill="#0cab4b"/><path d="M59.886 184.195l-9.318 17.073h-6.023l8.977-17.073h-8.977v-5.577h26.932v5.577H59.886zm-2.613 8.423l-2.841 5.463h8.977L65 201.155h6.136l-9.432-16.732-2.955 5.349 1.591 2.846h-3.068z" fill="#fff"/><path fill-rule="evenodd" d="M125.342 178.718c0 .056-.366.121-.813.147-.498.028-.83.099-.858.182-.025.075-.24.137-.477.137-.279 0-.454.06-.496.169-.036.094-.194.17-.352.17s-.286.051-.286.113-.124.114-.275.114a.7.7 0 0 0-.425.147c-.082.082-.238.182-.347.223s-.198.128-.198.192-.109.117-.242.117-.36.127-.504.282-.315.283-.381.283c-.151 0-.571.417-.571.566 0 .062-.053.113-.117.113-.169 0-.757.627-.843.9-.041.127-.121.232-.179.232s-.106.076-.106.17a.17.17 0 0 1-.17.169c-.098 0-.169.103-.169.242 0 .133-.128.36-.283.504s-.283.366-.283.494-.075.232-.17.232c-.113 0-.17.113-.17.339 0 .187-.044.34-.099.34s-.131.203-.171.452-.122.453-.184.453-.112.2-.112.444-.076.521-.17.615c-.121.121-.169.416-.169 1.026 0 .496-.048.857-.114.857s-.113.434-.113 1.075.046 1.075.113 1.075.114.361.114.857c0 .611.048.905.169 1.026.094.094.17.323.17.51s.077.416.17.509a.72.72 0 0 1 .17.444c0 .152.051.275.113.275s.113.204.113.453c0 .327.047.453.17.453a.17.17 0 0 1 .17.169c0 .094.051.17.113.17s.113.073.113.162.07.231.155.316a1.19 1.19 0 0 1 .234.404c.043.137.126.25.184.25s.106.05.106.111c0 .155 1.873 2.039 2.026 2.039.068 0 .124.076.124.17 0 .105.107.169.283.169s.283.064.283.17c0 .093.077.17.17.17s.17.051.17.113.127.113.283.113c.176 0 .283.064.283.17 0 .122.126.17.452.17s.453.047.453.169.126.17.453.17c.249 0 .453.051.453.113s.149.113.331.113.408.077.501.17c.253.253 6.004.253 6.257 0 .094-.093.37-.17.615-.17s.444-.044.444-.098.204-.132.453-.171.453-.123.453-.185.153-.111.339-.111c.227 0 .34-.057.34-.17 0-.106.107-.17.283-.17.155 0 .283-.045.283-.101s.127-.133.283-.172.283-.121.283-.182.076-.111.169-.111a.17.17 0 0 0 .17-.169c0-.106.107-.17.283-.17s.283-.064.283-.17c0-.093.053-.17.117-.17.147 0 .789-.648.789-.796 0-.06.076-.109.169-.109s.17-.055.17-.121.064-.192.142-.279c.335-.375.424-.503.424-.614 0-.065.076-.118.17-.118.103 0 .169-.105.169-.27 0-.149.077-.301.17-.336s.17-.169.17-.295.051-.23.113-.23.113-.078.113-.173a.28.28 0 0 1 .17-.239c.106-.041.17-.213.17-.457 0-.216.076-.469.17-.562s.169-.319.169-.501.044-.331.098-.331.13-.319.17-.708.125-.724.186-.745c.139-.047.154-3.979.015-3.979-.053 0-.13-.318-.171-.708s-.124-.724-.186-.744-.112-.238-.112-.481c0-.319-.047-.444-.169-.444s-.17-.124-.17-.44c0-.287-.059-.463-.17-.506-.093-.036-.17-.168-.17-.295s-.045-.23-.101-.23-.132-.127-.172-.283-.121-.283-.182-.283-.111-.101-.111-.226-.049-.226-.111-.226-.143-.128-.182-.283-.12-.283-.18-.283c-.115 0-.432-.281-.432-.384 0-.117-1-1.087-1.122-1.087-.067 0-.123-.077-.123-.17s-.054-.17-.121-.17-.192-.063-.279-.141c-.376-.337-.503-.424-.617-.424-.067 0-.151-.077-.187-.17s-.187-.17-.336-.17-.271-.05-.271-.111-.127-.143-.283-.182-.283-.116-.283-.172-.149-.101-.331-.101-.408-.076-.501-.17-.348-.169-.565-.169-.415-.061-.44-.135c-.026-.079-.355-.154-.801-.183-.416-.026-.757-.093-.757-.148s-.891-.1-1.981-.1-1.98.045-1.98.1zm170.106 0c0 .056-.365.121-.812.147-.498.028-.831.099-.859.182-.025.075-.203.137-.395.137s-.543.089-.78.198l-.43.198-.006 4.834.311-.078c.172-.042.329-.124.349-.181s.139-.105.263-.105.301-.077.395-.17a.8.8 0 0 1 .492-.17c.177 0 .343-.063.369-.141.035-.105.494-.142 1.782-.142s1.747.037 1.783.142c.026.078.196.141.377.141.218 0 .33.058.33.17 0 .106.107.17.283.17s.283.064.283.169c0 .094.051.17.113.17s.113.124.113.275.077.351.17.445c.184.183.237.978.066.978-.058 0-.138.152-.179.339s-.121.34-.179.34-.104.076-.104.169-.058.17-.128.17-.247.127-.391.283c-.213.23-.37.283-.834.283-.314 0-.571.051-.571.113s-.358.113-.849.113-.849-.048-.849-.113-.433-.113-1.075-.113h-1.075v4.866h2.433l2.434.098c0 .054.176.127.392.162.482.078 1.079.657 1.079 1.045 0 .154.051.279.113.279s.113.178.113.396-.051.396-.113.396-.113.204-.113.453c0 .327-.047.453-.17.453-.093 0-.17.054-.17.121 0 .172-.251.401-.542.494-.138.043-.25.126-.25.184s-.131.106-.291.106-.367.076-.461.17c-.129.129-.452.169-1.358.169s-1.229-.04-1.358-.169c-.093-.094-.37-.17-.614-.17s-.445-.047-.445-.104-.153-.138-.339-.179-.34-.121-.34-.179-.076-.104-.17-.104a.17.17 0 0 1-.169-.17c0-.105-.107-.169-.283-.169-.156 0-.283-.051-.283-.114s-.077-.113-.17-.113c-.146 0-.17.333-.17 2.32 0 2.5.066 2.773.667 2.773.118 0 .244.076.279.169s.194.17.352.17.287.044.287.099.203.131.452.171.453.122.453.184c0 .202 5.867.146 6.071-.058.094-.093.319-.17.501-.17s.332-.044.332-.098.204-.132.453-.171.452-.123.452-.185.122-.111.271-.111.3-.077.336-.17.176-.17.31-.17.355-.118.488-.262a3.27 3.27 0 0 1 .608-.477c.2-.118.397-.319.436-.445a1.42 1.42 0 0 1 .34-.48c.147-.137.267-.302.267-.367s.05-.119.111-.119.143-.127.182-.283.117-.283.172-.283.101-.117.101-.261a.94.94 0 0 1 .166-.481c.242-.319.248-3.643.007-3.961a.95.95 0 0 1-.169-.474c-.002-.14-.049-.255-.105-.255s-.133-.127-.172-.283-.121-.282-.182-.282-.111-.055-.111-.122c0-.159-.625-.784-.783-.784-.067 0-.122-.076-.122-.169 0-.104-.106-.17-.271-.17-.149 0-.3-.077-.336-.17s-.194-.17-.352-.17c-.23 0-.286-.055-.286-.283 0-.238.053-.282.339-.282.227 0 .34-.057.34-.17 0-.106.107-.17.283-.17.155 0 .283-.055.283-.121 0-.157.288-.445.444-.445.067 0 .122-.127.122-.283 0-.176.064-.283.169-.283.113 0 .17-.113.17-.339 0-.187.047-.34.105-.34s.14-.28.183-.622.123-.622.178-.622.1-.535.1-1.189c0-.707-.045-1.188-.112-1.188-.061 0-.144-.203-.184-.452s-.117-.453-.171-.453-.099-.122-.099-.271-.076-.3-.17-.336-.169-.145-.169-.244-.128-.296-.283-.44-.283-.32-.283-.391-.077-.129-.17-.129a.17.17 0 0 1-.17-.169c0-.094-.064-.17-.143-.17s-.238-.127-.355-.283-.302-.283-.411-.283a.3.3 0 0 1-.264-.17c-.035-.093-.194-.169-.351-.169s-.287-.051-.287-.114-.127-.113-.283-.113c-.176 0-.283-.064-.283-.17 0-.121-.124-.169-.443-.169-.244 0-.463-.061-.488-.135-.027-.079-.356-.154-.802-.183-.416-.026-.757-.093-.757-.148s-.891-.1-1.98-.1-1.981.045-1.981.1zm23.089 0c0 .055-.341.122-.757.148-.446.029-.775.104-.802.183s-.271.135-.601.135c-.419 0-.557.042-.557.169 0 .114-.113.17-.339.17-.187 0-.34.051-.34.113s-.103.114-.23.114-.259.076-.295.169-.181.17-.324.17-.288.076-.324.17-.145.17-.243.17-.297.127-.441.282-.32.283-.391.283-.129.077-.129.17a.17.17 0 0 1-.169.17c-.094 0-.17.05-.17.111s-.127.143-.283.182-.283.144-.283.234-.127.281-.283.425-.283.32-.283.39-.076.129-.17.129a.17.17 0 0 0-.169.17c0 .093-.05.169-.111.169s-.143.128-.182.283-.111.283-.16.283-.121.128-.16.283-.121.283-.182.283-.111.08-.111.178-.076.254-.17.347-.169.294-.169.445-.051.275-.114.275-.113.149-.113.331-.076.408-.169.501c-.103.103-.17.379-.17.696s-.068.592-.17.695c-.14.139-.17.576-.17 2.473s.03 2.334.17 2.473c.105.106.17.383.17.732 0 .395.05.581.17.627.106.041.169.214.169.465 0 .219.051.399.113.399s.114.129.114.287.076.316.169.351.17.187.17.336c0 .165.066.271.17.271s.17.107.17.283c0 .156.051.283.113.283s.113.076.113.17a.17.17 0 0 0 .17.169c.105 0 .17.107.17.283s.064.283.169.283c.094 0 .17.055.17.121 0 .157.288.445.445.445.066 0 .121.076.121.17a.17.17 0 0 0 .17.169c.093 0 .17.055.17.122 0 .181.593.741.881.833.138.043.25.127.25.185s.077.105.17.105.17.048.17.106.115.141.255.185.28.111.311.149c.107.131.81.466.979.466a.59.59 0 0 1 .339.169c.093.094.318.17.501.17s.331.044.331.099.255.132.566.173.566.124.566.185c0 .067 1.126.109 2.943.109l2.942-.105c0-.058.28-.14.623-.183s.622-.123.622-.178.124-.1.275-.1a.72.72 0 0 0 .445-.17c.093-.093.3-.169.46-.169s.291-.05.291-.111.128-.143.283-.182.283-.111.283-.16.128-.121.283-.16.283-.121.283-.182.077-.111.17-.111.17-.047.17-.105.11-.141.244-.183a1.46 1.46 0 0 0 .494-.347c.137-.149.308-.27.378-.27s.129-.057.129-.126.247-.363.549-.651.586-.639.63-.779.128-.255.186-.255.106-.076.106-.169.05-.17.111-.17.143-.127.182-.283.111-.283.16-.283.12-.127.159-.283.121-.283.182-.283.111-.149.111-.331.077-.408.17-.501.17-.301.17-.461.044-.291.099-.291.134-.318.178-.706.134-.739.199-.779c.156-.097.157-4.74.002-4.839-.061-.038-.147-.337-.192-.664s-.127-.594-.183-.594-.103-.18-.103-.399c0-.251-.063-.424-.17-.465s-.17-.211-.17-.437-.066-.398-.169-.437c-.094-.036-.17-.143-.17-.239s-.051-.173-.113-.173-.113-.127-.113-.283c0-.176-.065-.283-.17-.283s-.17-.107-.17-.283-.064-.283-.17-.283c-.093 0-.169-.057-.169-.128s-.128-.246-.283-.391-.283-.293-.283-.332c0-.115-.315-.393-.445-.393-.067 0-.121-.077-.121-.17s-.052-.17-.115-.17-.368-.254-.678-.566-.665-.565-.79-.565-.228-.075-.228-.17c0-.104-.106-.17-.271-.17-.149 0-.3-.076-.336-.17s-.194-.169-.352-.169-.286-.051-.286-.114-.115-.114-.255-.116-.353-.079-.474-.17-.41-.166-.641-.166-.442-.06-.466-.133-.352-.155-.745-.183c-.386-.028-.701-.096-.701-.15s-.891-.1-1.981-.1-1.98.045-1.98.1zm-220.961.54c-.042.042-.076 1.392-.076 3v2.923h4.301v15.846l6.96-.06.058-15.786h2.091c2.508 0 2.227.416 2.184-3.225l-.032-2.716-7.705-.029c-4.237-.016-7.739.005-7.781.047zm48.134 7.14l-.17 7.434a1.04 1.04 0 0 0-.166.537c0 .175-.047.318-.105.318s-.142.114-.186.255c-.094.296-.468.65-.688.65-.084 0-.153.051-.153.113s-.198.114-.44.114c-.287 0-.463.059-.506.169-.086.225-.818.222-1.253-.004-.629-.328-.637-.295-.604 2.463l.031 2.52.311.036c.171.02.311.084.311.142s.83.105 1.981.105c1.089 0 1.98-.044 1.98-.099s.316-.123.701-.15c.394-.029.721-.109.745-.184s.244-.132.488-.132c.318 0 .443-.048.443-.17 0-.106.107-.17.283-.17.156 0 .283-.045.283-.101s.127-.133.283-.172.283-.121.283-.182.049-.111.109-.111c.178 0 1.098-.947 1.184-1.219.044-.139.128-.252.186-.252s.105-.071.105-.157.077-.187.17-.223c.107-.041.17-.214.17-.465 0-.22.044-.4.099-.4s.131-.203.171-.452.122-.453.184-.453c.072 0 .112-1.949.112-5.488l.17-5.489c.093 0 .169-.051.169-.113 0-.211 3.811-.146 3.893.066.038.098.069 3.715.069 8.036v7.858l6.281-.061.058-21.783h-16.978l-.004 7.214zm19.357 14.632l6.187-.031 6.235-.173c.028-.085.256-.143.575-.145.29-.002.627-.078.748-.17a.94.94 0 0 1 .481-.166c.143 0 .261-.047.261-.104s.153-.138.34-.179.339-.121.339-.179.127-.104.283-.104c.176 0 .283-.064.283-.169a.17.17 0 0 1 .17-.17c.093 0 .17-.055.17-.121 0-.157.287-.445.444-.445.067 0 .121-.076.121-.17s.077-.17.17-.17c.106 0 .17-.106.17-.282 0-.156.05-.283.111-.283s.143-.128.182-.283.116-.283.172-.283.101-.153.101-.34c0-.226.056-.339.17-.339.145 0 .169-.327.169-2.263s-.024-2.264-.169-2.264c-.123 0-.17-.125-.17-.452s-.047-.453-.17-.453a.17.17 0 0 1-.17-.17c0-.093-.051-.169-.113-.169s-.113-.128-.113-.283c0-.176-.064-.283-.17-.283-.093 0-.17-.077-.17-.17s-.054-.17-.121-.17a.64.64 0 0 1-.444-.444c0-.067-.077-.121-.17-.121s-.17-.046-.17-.101-.127-.133-.283-.172-.283-.121-.283-.182-.129-.111-.286-.111-.316-.077-.352-.17c-.04-.103-.211-.17-.437-.17s-.398-.066-.437-.17c-.043-.111-.219-.169-.512-.169-.246 0-.466-.058-.49-.129-.03-.09-.882-.146-2.811-.185l-2.85-.182c-.046-.07-.084-2.023-.085-4.342l-.002-4.215h-6.904v21.846zm27.481-21.726c-.022.066-.433.149-.915.186s-.874.103-.874.148-.204.115-.453.155-.453.123-.453.184-.127.112-.283.112c-.176 0-.283.064-.283.17s-.107.17-.291.17c-.16 0-.362.063-.449.141-.325.292-.497.424-.55.424-.131 0-1.071 1.017-1.139 1.233-.042.131-.123.238-.181.238s-.106.055-.106.122-.076.197-.17.291a.64.64 0 0 0-.169.388c0 .12-.045.218-.099.218s-.125.24-.159.534-.116.552-.184.575c-.163.054-.175 3.983-.013 3.983.062 0 .145.204.185.453s.117.453.171.453.099.121.099.27.076.3.169.336.17.146.17.244.127.297.283.441.283.32.283.391.076.128.17.128a.17.17 0 0 1 .169.17c0 .093.058.17.129.17s.246.127.391.282.366.283.494.283.231.075.231.17c0 .119.12.17.397.17.217 0 .396.051.396.113s.152.113.339.113c.367 0 .455.227.198.514-.288.321-.381.453-.455.646-.041.109-.128.198-.192.198s-.117.127-.117.283c0 .176-.064.283-.169.283a.17.17 0 0 0-.17.17c0 .093-.051.169-.113.169s-.114.102-.114.227-.075.226-.169.226-.17.08-.17.178-.064.249-.142.336c-.288.321-.381.453-.454.646-.042.109-.129.198-.193.198s-.117.096-.117.214-.076.244-.169.28-.17.143-.17.238-.051.173-.113.173-.113.102-.113.227-.064.227-.142.227-.242.217-.365.481-.339.592-.481.729-.257.33-.257.428-.077.208-.17.244-.17.114-.17.174-.079.188-.175.284c-.398.398-.17.431 3.24.463 3.708.035 3.806.026 3.906-.373.039-.154.111-.281.159-.281s.121-.127.16-.283.121-.283.182-.283.111-.076.111-.169.05-.17.111-.17.143-.128.182-.283.111-.283.16-.283.12-.127.159-.283.121-.283.182-.283.111-.076.111-.17.05-.169.111-.169.146-.14.189-.31.146-.378.229-.461.151-.224.151-.312.05-.162.113-.162.113-.076.113-.17.05-.17.111-.17.143-.127.182-.283.111-.282.16-.282.12-.128.159-.283.121-.283.182-.283.111-.077.111-.17.05-.17.111-.17.143-.127.182-.283.111-.283.16-.283.121-.127.16-.282c.052-.207.146-.283.351-.283h.281v7.242h6.678v-21.84h-5.48l-5.52.12zm13.376 5.872l4.245.062.058 15.786h6.902v-15.843h4.301v-5.997h-15.506v5.992zm17.883.005h4.527v15.843h6.902l.058-15.786 4.244-.062v-5.992h-15.731v5.997zm18.448 15.843h3.169c2.741 0 3.169-.023 3.169-.17a.17.17 0 0 1 .169-.169c.106 0 .17-.107.17-.283 0-.156.051-.283.113-.283s.113-.077.113-.17.071-.17.158-.17.189-.127.229-.283.12-.283.181-.283.112-.076.112-.169.045-.17.1-.17.133-.127.172-.283.121-.283.182-.283.111-.076.111-.17a.17.17 0 0 1 .17-.169c.106 0 .17-.107.17-.283 0-.156.051-.283.113-.283s.113-.077.113-.17.071-.17.158-.17.189-.127.228-.283.121-.282.182-.282.111-.077.111-.17.046-.17.101-.17.133-.127.172-.283.121-.283.182-.283.111-.076.111-.169a.17.17 0 0 1 .17-.17c.106 0 .17-.107.17-.283 0-.156.051-.283.113-.283s.113-.076.113-.17.071-.17.158-.17.189-.127.228-.282.121-.283.182-.283.111-.077.111-.17.046-.17.101-.17.133-.127.172-.283.121-.283.182-.283.111-.071.111-.157.077-.187.17-.223.17-.146.17-.244.12-.291.267-.428.303-.364.347-.504.127-.254.185-.254.106-.077.106-.17.045-.17.101-.17.133-.127.172-.283.121-.283.182-.283.111-.076.111-.169a.17.17 0 0 1 .17-.17c.148 0 .169.69.169 5.533l.18 5.601c.098.038 1.6.069 3.338.069h3.16v-21.84h-3.339c-2.892 0-3.339.022-3.339.169a.17.17 0 0 1-.169.17c-.106 0-.17.107-.17.283 0 .156-.051.283-.113.283s-.113.076-.113.17-.077.17-.17.17c-.106 0-.17.106-.17.282s-.064.283-.17.283-.169.107-.169.283c0 .156-.051.283-.114.283s-.113.077-.113.17a.17.17 0 0 1-.17.17c-.106 0-.169.107-.169.286 0 .158-.077.316-.17.352s-.17.168-.17.294-.127.348-.283.492-.283.367-.283.494-.074.232-.17.232c-.105 0-.169.107-.169.283 0 .155-.051.283-.113.283s-.114.076-.114.169a.17.17 0 0 1-.169.17c-.104 0-.17.106-.17.271 0 .149-.077.3-.17.336s-.17.168-.17.295-.051.23-.113.23-.113.078-.113.173-.076.203-.17.238-.17.187-.17.336c0 .166-.066.271-.169.271s-.17.102-.17.242c0 .133-.127.359-.283.504s-.283.366-.283.493-.074.232-.17.232c-.105 0-.17.107-.17.283 0 .156-.051.283-.113.283s-.113.076-.113.17a.17.17 0 0 1-.17.17c-.103 0-.169.105-.169.27 0 .149-.077.3-.17.336s-.17.169-.17.295c0 .273-.173.305-.271.051-.038-.098-.069-2.67-.069-5.715v-5.535h-6.903v21.84zm31.167-21.388c-.04.249-.117.453-.171.453s-.099.149-.099.331-.076.408-.17.502-.169.346-.169.561c0 .245-.064.417-.17.458-.093.035-.17.194-.17.351s-.051.287-.113.287-.113.179-.113.399c0 .251-.063.424-.17.465s-.17.212-.17.449c0 .211-.05.384-.112.384s-.144.204-.184.453-.117.452-.171.452-.099.149-.099.332-.076.408-.169.501-.17.301-.17.461-.051.291-.112.291-.144.203-.184.452-.111.453-.157.453-.117.204-.157.453-.122.452-.184.452-.112.204-.112.453-.05.453-.111.453-.145.203-.185.452-.117.453-.171.453-.099.129-.099.286-.076.316-.169.352c-.106.04-.17.213-.17.457 0 .216-.076.468-.17.562a.72.72 0 0 0-.17.444c0 .152-.051.275-.113.275s-.113.149-.113.332-.076.407-.17.501-.169.346-.169.562c0 .244-.065.416-.17.457s-.17.214-.17.465c0 .219-.051.399-.113.399s-.113.153-.113.34c0 .226-.057.339-.17.339-.119 0-.17.12-.17.404 0 .223-.076.481-.17.574s-.169.319-.169.501-.045.332-.099.332-.131.203-.171.452-.123.453-.184.453-.112.147-.112.326-.077.389-.17.466-.17.288-.17.467-.051.325-.113.325-.113.128-.113.283v.283h6.904v-.291a.75.75 0 0 1 .169-.461c.094-.093.17-.293.17-.444s.051-.275.113-.275.114-.153.114-.34c0-.226.056-.339.169-.339s.17-.113.17-.34.057-.339.17-.339c.093 0 .17-.051.17-.113 0-.073 1.207-.113 3.395-.113 3.775 0 3.848.014 3.848.78 0 .186.073.355.17.392s.17.194.17.352.05.286.113.286.113.124.113.275a.72.72 0 0 0 .17.445c.093.093.169.249.169.347 0 .158.395.178 3.514.178h3.514l-.078-.424c-.043-.234-.122-.442-.175-.462s-.097-.183-.097-.36-.076-.398-.17-.492-.17-.3-.17-.461-.05-.291-.111-.291-.145-.203-.185-.452-.11-.453-.156-.453-.117-.204-.157-.452-.123-.453-.184-.453-.112-.127-.112-.283-.05-.283-.112-.283-.144-.204-.184-.453-.117-.452-.171-.452-.099-.149-.099-.332-.076-.407-.17-.501-.169-.279-.169-.412-.077-.319-.17-.412-.17-.319-.17-.501-.051-.332-.113-.332-.113-.123-.113-.275a.72.72 0 0 0-.17-.444c-.093-.094-.17-.301-.17-.461s-.05-.291-.112-.291-.144-.204-.184-.453-.117-.452-.171-.452-.099-.149-.099-.332-.076-.407-.17-.501-.169-.351-.169-.574c0-.283-.051-.404-.17-.404-.113 0-.17-.113-.17-.339 0-.187-.051-.34-.113-.34s-.113-.123-.113-.275a.72.72 0 0 0-.17-.444c-.093-.093-.17-.346-.17-.562 0-.244-.064-.417-.17-.457-.093-.036-.169-.194-.169-.352s-.045-.286-.099-.286-.131-.204-.171-.453-.123-.452-.184-.452-.112-.204-.112-.453c0-.327-.047-.453-.17-.453-.106 0-.17-.107-.17-.283 0-.155-.044-.283-.098-.283s-.132-.203-.171-.452-.123-.453-.185-.453-.112-.204-.112-.453c0-.326-.047-.452-.169-.452-.114 0-.17-.113-.17-.34 0-.186-.044-.339-.099-.339s-.131-.204-.171-.453-.123-.452-.184-.452-.112-.128-.112-.283v-.283h-7.807l-.072.452zm60.846 5.545h4.527v15.843l3.311-.002 3.451-.091c.109-.069.147-1.822.17-7.891l.029-7.802 4.244-.062v-5.992h-15.732v5.997zm-205.553-.688c.023.067.189.123.371.123s.33.049.33.111.127.142.283.182.283.113.283.164.105.126.232.167c.308.098.855.64.951.944.043.133.125.242.183.242s.105.077.105.17.077.17.17.17c.119 0 .17.12.17.404 0 .222.076.48.17.574s.169.319.169.501.051.331.114.331c.069 0 .113.585.113 1.528 0 .84-.044 1.528-.099 1.528s-.125.24-.158.533-.116.553-.185.576-.124.19-.124.371c0 .218-.058.33-.17.33-.098 0-.17.102-.17.242 0 .133-.127.359-.283.504s-.283.315-.283.38-.064.119-.142.119-.239.127-.356.283-.26.283-.318.283-.182.076-.275.17a.72.72 0 0 1-.444.169c-.152 0-.275.051-.275.113s-.2.114-.444.114-.463.058-.486.13c-.075.223-1.275.263-1.576.053-.143-.101-.453-.183-.689-.183s-.427-.047-.427-.105-.153-.137-.34-.178-.339-.122-.339-.179-.073-.104-.161-.104c-.246 0-1.31-1.106-1.31-1.361 0-.123-.076-.223-.17-.223-.106 0-.17-.107-.17-.283 0-.156-.051-.283-.113-.283s-.113-.129-.113-.287-.077-.316-.17-.351c-.13-.05-.17-.263-.17-.902 0-.482-.048-.837-.113-.837s-.113-.28-.113-.622.051-.622.113-.622.113-.321.113-.736c0-.409.05-.736.112-.736s.144-.203.184-.452.117-.453.171-.453.099-.078.099-.173.076-.203.17-.239.17-.138.17-.228.127-.281.283-.425.282-.32.282-.391.077-.128.17-.128a.17.17 0 0 0 .17-.17.17.17 0 0 1 .17-.17c.093 0 .169-.051.169-.113s.128-.113.283-.113c.177 0 .283-.064.283-.17 0-.122.126-.169.453-.169.249 0 .453-.048.453-.105 0-.254 2.61-.271 2.694-.018zm193.079-.007c.024.071.188.13.366.13s.398.076.491.169.225.17.291.17.122.045.122.101.127.133.283.172.283.121.283.182.076.111.169.111a.17.17 0 0 1 .17.17.17.17 0 0 0 .17.169c.093 0 .17.077.17.17s.045.17.101.17.132.127.171.283.121.283.182.283.111.121.111.27.077.301.17.336c.106.041.17.213.17.456 0 .214.053.407.118.429.147.049.163 3.835.017 3.931-.056.036-.137.257-.18.49s-.127.425-.186.425-.109.104-.109.231-.127.35-.282.494-.283.32-.283.391-.077.128-.17.128-.17.055-.17.122c0 .156-.288.444-.445.444-.066 0-.121.077-.121.17a.17.17 0 0 1-.17.17c-.093 0-.169.047-.169.104s-.153.138-.34.179-.339.121-.339.178-.255.105-.566.105c-.428 0-.566.041-.566.169 0 .235-1.323.232-1.635-.003-.12-.092-.413-.166-.65-.166s-.431-.046-.431-.101-.128-.133-.283-.172-.283-.121-.283-.182-.071-.111-.158-.111-.187-.077-.223-.17-.165-.17-.287-.17c-.132 0-.255-.104-.303-.254-.043-.14-.2-.367-.347-.504s-.267-.303-.267-.368-.05-.118-.111-.118-.143-.128-.182-.283-.116-.283-.172-.283-.101-.149-.101-.332-.076-.407-.169-.501c-.138-.137-.17-.534-.17-2.093s.032-1.956.17-2.094c.093-.093.169-.301.169-.461s.051-.291.113-.291.114-.127.114-.282c0-.177.064-.283.169-.283s.17-.107.17-.283.064-.283.17-.283c.093 0 .17-.058.17-.128 0-.18.774-.891.97-.891.089 0 .161-.051.161-.113s.077-.113.17-.113.17-.05.17-.112.204-.144.453-.184.452-.113.452-.163c0-.246 2.611-.255 2.692-.01zm-124.924 4.09h-1.912c-1.595 0-1.922-.028-1.977-.17-.036-.093-.194-.169-.351-.169s-.287-.051-.287-.113-.076-.114-.17-.114a.17.17 0 0 1-.169-.169.17.17 0 0 0-.17-.17c-.123 0-.17-.126-.17-.453 0-.249-.051-.452-.113-.452s-.113-.077-.113-.17.051-.17.113-.17.113-.18.113-.399c0-.251.063-.424.17-.465.093-.036.17-.136.17-.223s.076-.158.169-.158.17-.051.17-.113.143-.113.317-.113.365-.046.424-.102c.186-.177.516-.211 2.173-.224l1.613-.013v3.96zm80.809-2.546c0 .218.045.396.099.396s.131.204.171.453.123.452.184.452.112.15.112.332.077.408.17.501a.75.75 0 0 1 .17.461c0 .16.044.291.098.291s.132.203.172.452.122.453.184.453.112.18.112.4c0 .25.063.423.169.464s.17.219.17.506c0 .242.051.441.113.441s.113.127.113.282v.283h-4.537l.078-.424c.043-.233.122-.441.175-.462s.097-.237.097-.481c0-.318.048-.443.17-.443s.169-.126.169-.453c0-.249.051-.452.112-.452s.145-.204.185-.453.116-.453.171-.453.098-.149.098-.331.077-.408.17-.501.17-.352.17-.574.049-.404.108-.404.143-.189.187-.419c.142-.76.61-1.002.61-.317zm-101.747 6.62c0 .062.129.113.287.113s.314.072.348.16.184.19.335.228c.199.05.275.147.275.35 0 .154.051.281.113.281s.114.301.114.679-.051.679-.114.679-.113.08-.113.177c0 .204-.264.502-.444.502-.067 0-.122.076-.122.169 0 .113-.113.17-.339.17-.187 0-.34.051-.34.113 0 .071-.735.113-1.98.113h-1.981v-3.847h1.981c1.245 0 1.98.042 1.98.113z" fill="#000"/></svg>