<svg width="24" height="25" viewBox="0 0 24 25" fill="none" xmlns="http://www.w3.org/2000/svg">
<g clip-path="url(#clip0_8442_5202)">
<path d="M5.93366 24.8945C4.65003 24.8945 3.36646 24.4059 2.38925 23.4288C1.44247 22.482 0.921082 21.2232 0.921082 19.8843C0.921082 18.5455 1.44247 17.2867 2.38925 16.3399L16.7484 1.98072C17.4488 1.28027 18.3801 0.894531 19.3706 0.894531C20.3611 0.894531 21.2924 1.28027 21.9928 1.98072C22.6932 2.68113 23.0789 3.61234 23.0789 4.60291C23.0789 5.59342 22.6932 6.52469 21.9928 7.22509L9.58307 19.6348C8.64571 20.5721 7.12058 20.5721 6.18318 19.6348C5.24582 18.6974 5.24582 17.1723 6.18318 16.2349L14.9132 7.50489C15.17 7.24811 15.5863 7.24811 15.8432 7.50489C16.1 7.76167 16.1 8.17806 15.8432 8.43489L7.11313 17.1648C6.68858 17.5894 6.68858 18.2802 7.11313 18.7048C7.53772 19.1294 8.22847 19.1294 8.65307 18.7048L21.0628 6.29509C21.5148 5.84308 21.7637 5.24209 21.7637 4.60291C21.7637 3.96367 21.5148 3.36269 21.0628 2.91072C20.1297 1.97763 18.6115 1.97763 17.6784 2.91072L3.31921 17.2698C2.62086 17.9682 2.23625 18.8967 2.23625 19.8843C2.23625 20.872 2.62086 21.8004 3.31921 22.4988C4.76085 23.9403 7.10652 23.9403 8.54807 22.4988L19.2565 11.7903C19.5133 11.5336 19.9296 11.5336 20.1865 11.7903C20.4433 12.0471 20.4433 12.4635 20.1865 12.7203L9.47807 23.4288C8.50086 24.4059 7.21724 24.8945 5.93366 24.8945Z" fill="#0071FE"/>
</g>
<defs>
<clipPath id="clip0_8442_5202">
<rect width="24" height="24" fill="white" transform="translate(0 0.894531)"/>
</clipPath>
</defs>
</svg>
